<svg xmlns="http://www.w3.org/2000/svg" viewBox="0 0 512 512" fill="#38b14d" xmlns:v="https://vecta.io/nano"><path d="M396.4 45.7L262.7 1.1a20.81 20.81 0 0 0-13.5 0L115.6 45.7C72 60.2 42.6 101 42.7 146.9V256c0 161.3 196.3 250.5 204.7 254.2 5.5 2.4 11.8 2.4 17.3 0 8.4-3.7 204.7-92.8 204.7-254.2V146.8c0-45.9-29.4-86.7-73-101.1zM426.7 256c0 116.4-134.8 192.7-170.7 211-35.9-18.2-170.7-94.3-170.7-211V146.8a63.87 63.87 0 0 1 43.8-60.7L256 43.8l126.9 42.3c26.1 8.7 43.8 33.2 43.8 60.7V256zm-100.3-78.9l-89.3 89.6-47.9-49.9c-8-8.7-21.4-9.3-30.1-1.3s-9.3 21.4-1.3 30.1c.2.3.5.5.7.8l49.2 51.2c7.4 8 17.8 12.6 28.7 12.8h.7a40.18 40.18 0 0 0 28.5-11.8l91.1-91.1c8.4-8.4 8.4-21.9 0-30.3-8.4-8.5-21.9-8.5-30.3-.1h0z"/></svg>