<svg width="152" height="42" viewBox="0 0 152 42" fill="none" xmlns="http://www.w3.org/2000/svg">
<g clip-path="url(#clip0_12_2989)">
<path d="M0 0.420362H24.5588L24.8519 10.1467H23.1539C22.8536 7.14374 22.1661 5.06851 21.0912 3.92097C20.0164 2.77343 18.3482 2.19724 16.0865 2.19241H11.9398C11.4712 2.1461 11.0021 2.27497 10.6207 2.55479C10.4793 2.69569 10.3692 2.86554 10.2977 3.05301C10.2261 3.24048 10.1949 3.44125 10.206 3.64193V13.1073H11.711C14.6995 13.1073 16.425 11.2954 16.8873 7.67161H18.546V20.7173H16.8873C16.8955 19.5738 16.6653 18.4414 16.2117 17.3943C15.8415 16.6188 15.2676 15.9618 14.553 15.4954C13.8197 15.0305 12.969 14.7913 12.1042 14.8069H10.206V25.1058C10.1873 25.3265 10.2166 25.5486 10.292 25.7565C10.3674 25.9644 10.4869 26.153 10.6421 26.3089C11.045 26.6728 11.5683 26.8695 12.1078 26.8597H14.7424V28.6281H0V26.8525H2.47018C2.71227 26.8692 2.95522 26.8368 3.1848 26.7572C3.41438 26.6775 3.62596 26.5522 3.80715 26.3886C3.96256 26.2383 4.08566 26.0571 4.1687 25.8563C4.25175 25.6555 4.29296 25.4395 4.28975 25.2217V3.66368C4.309 3.45093 4.27599 3.23666 4.19365 3.04001C4.11131 2.84335 3.98221 2.67042 3.81787 2.53667C3.51044 2.29508 2.88009 2.18033 1.92681 2.19241H0V0.420362ZM27.4651 0.420362L35.7479 0V25.3921C35.7359 25.5945 35.7685 25.797 35.8433 25.9851C35.9181 26.1731 36.0333 26.3419 36.1804 26.4792C36.5314 26.7615 36.9741 26.8999 37.4209 26.867H38.5326V28.6281H27.9012V26.8525H29.1024C29.3274 26.8711 29.5537 26.841 29.7663 26.7642C29.979 26.6873 30.173 26.5655 30.3357 26.4067C30.6346 26.0215 30.78 25.5365 30.7432 25.0478V4.17826C30.7604 3.9054 30.7223 3.63186 30.6313 3.37448C30.5403 3.11709 30.3983 2.8813 30.2141 2.68162C30.0228 2.50114 29.7976 2.36159 29.5519 2.27131C29.3062 2.18103 29.0451 2.14187 28.7842 2.15617H27.4651V0.420362ZM51.3876 11.5962C50.7609 11.5838 50.142 11.7387 49.593 12.0452C49.044 12.3518 48.5842 12.7993 48.2596 13.3429C47.4875 14.5098 47.1014 16.5548 47.1014 19.478C47.1014 22.5196 47.4839 24.6154 48.2489 25.7653C48.574 26.3011 49.031 26.7419 49.575 27.0443C50.1191 27.3468 50.7314 27.5004 51.3518 27.4903C51.9926 27.4972 52.6245 27.3381 53.1876 27.028C53.7507 26.7178 54.2262 26.267 54.5691 25.7182C55.3842 24.532 55.7917 22.4906 55.7917 19.594C55.7917 16.6152 55.3901 14.5387 54.587 13.3646C54.2453 12.8153 53.7698 12.3643 53.2063 12.0552C52.6428 11.7461 52.0103 11.5893 51.3697 11.5998M51.2553 9.78792C53.1423 9.76759 55.0059 10.2128 56.6854 11.0852C58.2081 11.8299 59.4857 13.0054 60.3639 14.4699C61.2029 16.0054 61.619 17.7415 61.5686 19.4961C61.5686 22.6368 60.5176 25.0381 58.4156 26.7003C56.389 28.347 53.8632 29.2329 51.266 29.2079C49.4693 29.227 47.6971 28.7844 46.1148 27.9215C44.6274 27.1228 43.3894 25.9193 42.54 24.4462C41.6879 22.9492 41.2518 21.246 41.2781 19.5179C41.2496 18.2233 41.4894 16.937 41.982 15.7423C42.4746 14.5475 43.2091 13.4709 44.1379 12.5819C46.023 10.7168 48.4014 9.7843 51.2732 9.7843L51.2553 9.78792ZM70.9417 18.0865H76.8186C77.0341 18.1075 77.2515 18.0807 77.4558 18.0082C77.6601 17.9356 77.8465 17.8189 78.0019 17.6661C78.2378 17.3871 78.3594 16.8761 78.3594 16.1405C78.3594 14.6668 78.0281 13.5253 77.3656 12.716C77.0639 12.3294 76.6782 12.0187 76.2385 11.8081C75.7989 11.5975 75.3172 11.4928 74.831 11.502C74.2619 11.4871 73.6999 11.6326 73.2075 11.9225C72.7152 12.2123 72.312 12.6351 72.0427 13.1436C71.3992 14.238 71.0334 15.8856 70.9452 18.0865M83.2926 19.8223H70.9417C70.9774 22.3251 71.4755 24.172 72.4359 25.3631C72.8724 25.9346 73.4353 26.3941 74.0793 26.7045C74.7232 27.0148 75.4302 27.1673 76.143 27.1496C77.2284 27.1465 78.2903 26.8283 79.203 26.2328C80.1563 25.624 81.1465 24.5175 82.1737 22.9134L83.5464 23.7722C82.4811 25.6783 81.2609 27.0421 79.8858 27.8635C78.3477 28.7249 76.6088 29.1493 74.8525 29.092C71.9641 29.092 69.6297 28.2017 67.8495 26.4212C66.0692 24.6407 65.1743 22.3565 65.1648 19.5686C65.1648 16.7807 66.0621 14.453 67.8566 12.5855C68.704 11.6781 69.729 10.9602 70.866 10.4779C72.003 9.99547 73.2269 9.75924 74.4593 9.7843C76.0788 9.74198 77.6811 10.1305 79.1065 10.9113C80.4171 11.6772 81.4716 12.8232 82.1343 14.2017C82.866 15.6488 83.252 17.5223 83.2926 19.8223ZM122.397 26.8633V28.6281H111.762V26.8633H112.856C113.521 26.8633 113.986 26.7292 114.257 26.4611C114.404 26.2938 114.516 26.0979 114.585 25.8855C114.655 25.673 114.68 25.4484 114.661 25.2254V17.4704C114.661 16.0209 114.368 14.9736 113.785 14.2887C113.481 13.9427 113.104 13.6705 112.682 13.4923C112.26 13.3142 111.804 13.2346 111.347 13.2595C110.577 13.2361 109.816 13.4387 109.156 13.843C108.464 14.3284 107.92 14.9998 107.583 15.7817C107.165 16.6118 106.94 17.5279 106.925 18.4597V25.4537C106.913 25.6454 106.94 25.8377 107.005 26.0182C107.07 26.1986 107.172 26.3631 107.304 26.5009C107.583 26.7512 107.948 26.8812 108.32 26.8633H109.767V28.6281H98.9466V26.8633H100.151C100.802 26.8633 101.224 26.7546 101.467 26.5372C101.618 26.3785 101.735 26.1896 101.81 25.9824C101.885 25.7752 101.917 25.5544 101.903 25.3341V17.2856C101.903 15.9991 101.588 15.0026 100.959 14.2887C100.665 13.9399 100.298 13.6615 99.8855 13.4736C99.4726 13.2856 99.0237 13.1927 98.5712 13.2016C97.8304 13.1993 97.1032 13.4037 96.4692 13.7922C95.7702 14.2467 95.2008 14.8789 94.8177 15.6259C94.399 16.3093 94.1613 17.0906 94.1277 17.8944V24.9137C94.1277 25.6385 94.2529 26.1132 94.5067 26.3632C94.8996 26.7142 95.4139 26.8928 95.9366 26.8597H96.9697V28.6281H86.0916V26.8633H87.3356C87.997 26.8633 88.4617 26.7365 88.7191 26.5009C88.8636 26.3264 88.972 26.1242 89.0377 25.9063C89.1034 25.6883 89.1252 25.4592 89.1016 25.2326V14.4953C89.1219 14.0927 89.0276 13.6926 88.8299 13.3429C88.6221 13.036 88.3226 12.8049 87.9755 12.6833C87.3978 12.5351 86.8011 12.4764 86.206 12.5094V10.7808L93.47 10.3786C93.7565 11.6831 93.9394 13.0089 94.0169 14.3431C95.2228 12.7872 96.3799 11.7001 97.488 11.0816C98.5963 10.4611 99.8432 10.1391 101.109 10.1467C102.361 10.0972 103.593 10.4806 104.602 11.2338C105.524 11.9586 106.205 13.0457 106.643 14.4953C107.835 12.8984 109.019 11.7677 110.196 11.1034C111.319 10.4535 112.589 10.1101 113.882 10.1068C115.667 10.1068 117.074 10.6733 118.104 11.8064C119.133 12.9394 119.648 14.5605 119.648 16.6695V25.2217C119.627 25.4471 119.651 25.6743 119.718 25.8902C119.785 26.1061 119.894 26.3064 120.038 26.4792C120.374 26.7636 120.807 26.9017 121.243 26.8633H122.397ZM131.552 7.34547L131.023 6.90699L134.072 2.49681C135.038 1.09802 136.029 0.39862 137.047 0.39862C137.621 0.402348 138.171 0.63239 138.58 1.04003C138.783 1.20152 138.949 1.40505 139.067 1.63694C139.185 1.86883 139.253 2.12371 139.267 2.38447C139.271 2.87963 139.094 3.35889 138.77 3.7289C138.437 4.11665 137.697 4.57325 136.521 5.09146L131.552 7.34547ZM136.746 19.1156C134.063 19.4852 132.247 20.0542 131.298 20.8224C130.84 21.1793 130.471 21.6412 130.223 22.1703C129.974 22.6994 129.853 23.2806 129.868 23.8664C129.822 24.6119 130.062 25.3466 130.537 25.9175C130.782 26.1645 131.075 26.3567 131.398 26.4815C131.72 26.6064 132.065 26.6611 132.41 26.6423C132.992 26.6567 133.57 26.5434 134.104 26.3101C134.638 26.0768 135.117 25.729 135.506 25.2906C136.328 24.3871 136.739 23.1525 136.739 21.5871L136.746 19.1156ZM144.575 26.4212L145.365 27.7983C144.733 28.2623 144.04 28.6343 143.306 28.9035C142.658 29.1124 141.981 29.2152 141.301 29.2079C140.385 29.2479 139.479 29.0053 138.702 28.5122C138.037 28.0483 137.429 27.1738 136.879 25.8885C135.599 27.1738 134.45 28.0483 133.433 28.5122C132.347 28.9904 131.173 29.2277 129.99 29.2079C128.222 29.2079 126.842 28.7948 125.85 27.9686C125.378 27.5977 124.997 27.1203 124.739 26.5743C124.48 26.0284 124.35 25.4288 124.36 24.8231C124.36 22.8904 125.276 21.3503 127.109 20.2028C128.579 19.2847 131.796 18.3691 136.761 17.4559V14.8794C136.777 14.4166 136.696 13.9556 136.524 13.5266C136.353 13.0975 136.093 12.7102 135.763 12.3898C135.034 11.7242 134.073 11.3789 133.093 11.4295C132.307 11.412 131.529 11.6018 130.837 11.9803C130.398 12.2231 130.176 12.4659 130.176 12.7051C130.208 12.9143 130.293 13.1115 130.423 13.2777C130.753 13.7825 130.935 14.3718 130.948 14.9772C130.958 15.2999 130.9 15.6211 130.776 15.9187C130.653 16.2164 130.468 16.4836 130.233 16.7022C129.721 17.1599 129.053 17.3966 128.371 17.3617C127.638 17.3944 126.921 17.1342 126.376 16.6369C126.128 16.4022 125.933 16.1166 125.803 15.7991C125.672 15.4816 125.611 15.1396 125.622 14.796C125.622 13.5639 126.281 12.4768 127.598 11.5346C129.25 10.3677 131.3 9.7843 133.747 9.7843C135.425 9.75399 137.093 10.053 138.659 10.6649C139.589 11.0486 140.372 11.7276 140.89 12.6C141.487 13.6307 141.783 14.8118 141.744 16.0064V25.0659C141.699 25.59 141.831 26.1141 142.119 26.5517C142.246 26.7034 142.405 26.8238 142.585 26.9035C142.765 26.9833 142.96 27.0204 143.156 27.0119C143.677 26.9516 144.172 26.7473 144.586 26.4212H144.575ZM0.943744 35.4119V38.05H2.75616C3.17232 38.0727 3.58598 37.972 3.94657 37.7601C4.0982 37.6388 4.21682 37.4803 4.29126 37.2996C4.36569 37.1189 4.39346 36.922 4.37197 36.7274C4.3808 36.489 4.33427 36.2519 4.23612 36.0352C4.15273 35.8597 4.0145 35.717 3.8429 35.6293C3.67187 35.5421 3.48859 35.4822 3.29953 35.4518C3.077 35.4189 2.85234 35.4032 2.62747 35.4047L0.943744 35.4119ZM0 34.5893H2.93848C3.55587 34.5545 4.16677 34.732 4.67225 35.093C4.89544 35.2857 5.0702 35.5295 5.18209 35.8043C5.29397 36.079 5.33978 36.3768 5.31571 36.673C5.31571 38.1225 4.50423 38.8473 2.88128 38.8473H0.943744V41.8152H0V34.5893ZM7.39981 35.4047V37.9413H9.18721C9.40884 37.9413 9.59473 37.9341 9.74487 37.9196C9.91282 37.9043 10.0791 37.874 10.2418 37.829C10.3997 37.7934 10.5483 37.7242 10.6779 37.6261C10.7957 37.5281 10.8898 37.4041 10.9531 37.2637C11.0304 37.0768 11.0682 36.8756 11.064 36.673C11.0871 36.4829 11.0587 36.2901 10.9818 36.1152C10.905 35.9403 10.7826 35.7898 10.6278 35.6801C10.2603 35.4896 9.84966 35.4008 9.43744 35.4228L7.39981 35.4047ZM6.45964 34.5893H9.59831C11.195 34.5893 11.9934 35.2573 11.9934 36.5933C12.0007 36.9909 11.883 37.3805 11.6574 37.7058C11.4459 38.0198 11.132 38.2482 10.7708 38.3508C10.9779 38.3916 11.1756 38.4715 11.3535 38.5864C11.5018 38.6894 11.6133 38.8381 11.6717 39.0104C11.7294 39.1688 11.7713 39.3327 11.7968 39.4996C11.8182 39.6409 11.8325 39.8619 11.8468 40.1301V40.5432C11.8434 40.6084 11.8434 40.6737 11.8468 40.7389C11.8468 40.8368 11.8647 40.9056 11.8719 40.9527C11.879 40.9998 11.8897 41.0651 11.9005 41.1484C11.912 41.2149 11.9287 41.2803 11.9505 41.3441C11.972 41.3948 11.997 41.4528 12.022 41.518C12.0466 41.5786 12.0765 41.6368 12.1114 41.692C12.1455 41.7401 12.1825 41.7861 12.2222 41.8297H11.1498C11.0986 41.7505 11.06 41.6637 11.0354 41.5724C11.0002 41.4545 10.9786 41.3329 10.971 41.21C10.9567 41.0723 10.946 40.96 10.9389 40.873C10.9389 40.7896 10.9389 40.6628 10.921 40.5106C10.9031 40.3584 10.921 40.2569 10.921 40.2352C10.8888 39.6192 10.7601 39.2097 10.5456 39.0067C10.3311 38.8038 9.89859 38.6987 9.25513 38.6987H7.39981V41.8333H6.45964V34.5893ZM16.3368 35.2525C15.9868 35.2332 15.6374 35.3002 15.3186 35.4479C14.9998 35.5956 14.7211 35.8195 14.5065 36.1004C14.0683 36.7077 13.8442 37.4467 13.8702 38.1986C13.8288 38.9829 14.0702 39.7557 14.5494 40.3729C14.7702 40.6384 15.048 40.8492 15.3615 40.9893C15.675 41.1293 16.0159 41.1949 16.3582 41.181C16.6975 41.1927 17.0349 41.1257 17.3447 40.985C17.6545 40.8443 17.9284 40.6337 18.1456 40.3693C18.6202 39.75 18.8588 38.9781 18.8177 38.195C18.8567 37.4205 18.6165 36.658 18.142 36.0497C17.9194 35.7859 17.6406 35.5767 17.3267 35.438C17.0127 35.2993 16.6718 35.2346 16.3296 35.2488M16.3296 34.4117C16.7998 34.3859 17.2698 34.465 17.7065 34.6435C18.1432 34.8219 18.5359 35.0954 18.857 35.4445C19.4817 36.1977 19.8045 37.1612 19.7614 38.1443C19.8009 39.1448 19.4837 40.1264 18.8677 40.9092C18.5568 41.2746 18.1672 41.5627 17.7289 41.7512C17.2907 41.9397 16.8156 42.0236 16.3404 41.9964C15.8265 42.005 15.3168 41.9012 14.8461 41.692C14.4262 41.5031 14.0581 41.2133 13.7737 40.8476C13.493 40.4797 13.2798 40.0636 13.1445 39.6192C12.9951 39.1349 12.9215 38.6299 12.9264 38.1225C12.8773 37.1331 13.2107 36.1633 13.8559 35.4192C14.1762 35.0846 14.563 34.823 14.9908 34.6518C15.4186 34.4806 15.8774 34.4037 16.3368 34.4262L16.3296 34.4117ZM25.6527 34.5893V35.4228H21.9027V37.6804H25.213V38.4849H21.9027V41.8297H20.959V34.5893H25.6527ZM31.6512 34.5893V35.4228H27.651V37.6913H31.3902V38.4921H27.651V40.9926H31.7012V41.8297H26.7072V34.5893H31.6512ZM37.8928 36.7129H36.9812C36.8775 35.7308 36.2877 35.238 35.1938 35.238C34.7725 35.2128 34.3542 35.3245 33.9998 35.5569C33.8674 35.6602 33.7621 35.7948 33.6929 35.9489C33.6237 36.1031 33.5929 36.272 33.603 36.4411C33.6005 36.5647 33.6211 36.6876 33.6638 36.8035C33.7091 36.9094 33.7805 37.0017 33.8711 37.0716C33.9589 37.1435 34.0508 37.21 34.1464 37.2709C34.2762 37.3423 34.4143 37.3971 34.5575 37.434C34.7434 37.4884 34.8971 37.5282 35.0079 37.55L35.5405 37.6659C35.8337 37.7275 36.0803 37.7855 36.2555 37.8326C36.4917 37.9008 36.7234 37.9843 36.949 38.0827C37.1781 38.1778 37.3924 38.306 37.5853 38.4632C37.7533 38.6222 37.8924 38.8098 37.9964 39.0176C38.1147 39.2622 38.1748 39.5316 38.1716 39.804C38.1874 40.2657 38.0375 40.7176 37.7498 41.0759C37.4845 41.4118 37.1296 41.6633 36.7274 41.8007C36.2957 41.942 35.844 42.0106 35.3904 42.0036C34.6237 42.0433 33.8668 41.8156 33.2455 41.3586C32.9713 41.1287 32.7549 40.8359 32.6144 40.5045C32.4739 40.173 32.4133 39.8124 32.4376 39.4525H33.3492C33.3401 39.7079 33.3907 39.9618 33.497 40.1936C33.6032 40.4254 33.762 40.6284 33.9605 40.786C34.4091 41.0852 34.9398 41.2323 35.4762 41.2064C35.9141 41.2195 36.3475 41.1131 36.7309 40.8984C36.9018 40.7954 37.0411 40.6464 37.1333 40.4678C37.2254 40.2893 37.2668 40.0883 37.2529 39.8873C37.2624 39.6901 37.2115 39.4947 37.1072 39.328C37.0029 39.1612 36.8502 39.0313 36.6702 38.956C36.4754 38.8601 36.2734 38.7802 36.066 38.7168C35.8694 38.6552 35.6013 38.59 35.276 38.5139L35.1759 38.4921C34.69 38.3929 34.2121 38.2573 33.746 38.0863C33.4286 37.9712 33.156 37.756 32.9681 37.4723C32.7803 37.1886 32.687 36.8513 32.7022 36.5099C32.6847 36.2069 32.7454 35.9045 32.8782 35.6326C33.0111 35.3606 33.2117 35.1284 33.46 34.9589C34.0055 34.6059 34.6434 34.4278 35.2903 34.448C35.9608 34.4123 36.6228 34.6134 37.1635 35.0169C37.4048 35.2251 37.5969 35.4856 37.7256 35.7792C37.8542 36.0727 37.9163 36.3918 37.9071 36.7129M44.3881 36.7129H43.4766C43.3729 35.7308 42.7831 35.238 41.6892 35.238C41.2679 35.2128 40.8496 35.3245 40.4952 35.5569C40.3582 35.6574 40.248 35.7908 40.1744 35.9451C40.1008 36.0994 40.0661 36.2698 40.0734 36.4411C40.0709 36.5647 40.0915 36.6876 40.1341 36.8035C40.1781 36.9102 40.2498 37.0028 40.3415 37.0716C40.4293 37.1435 40.5212 37.21 40.6167 37.2709C40.7466 37.3423 40.8847 37.3971 41.0278 37.434C41.2137 37.4884 41.3853 37.5282 41.4783 37.55L42.0109 37.6659C42.304 37.7275 42.5507 37.7855 42.7259 37.8326C42.9624 37.8998 43.1941 37.9833 43.4194 38.0827C43.6501 38.1766 43.8658 38.3048 44.0593 38.4632C44.2271 38.6215 44.3652 38.8093 44.4668 39.0176C44.5882 39.2612 44.6495 39.5311 44.6455 39.804C44.6597 40.2655 44.51 40.7168 44.2237 41.0759C43.9584 41.4118 43.6035 41.6633 43.2013 41.8007C42.7696 41.942 42.3179 42.0106 41.8643 42.0036C41.0977 42.0433 40.3408 41.8156 39.7195 41.3586C39.4452 41.1287 39.2289 40.8359 39.0884 40.5045C38.9479 40.173 38.8873 39.8124 38.9116 39.4525H39.8231C39.8117 39.7103 39.8613 39.9671 39.9676 40.2016C40.0739 40.4361 40.234 40.6414 40.4344 40.8005C40.8831 41.0997 41.4138 41.2468 41.9501 41.2209C42.3881 41.234 42.8214 41.1276 43.2049 40.9129C43.3758 40.8099 43.5151 40.6609 43.6072 40.4823C43.6994 40.3038 43.7408 40.1028 43.7268 39.9018C43.7364 39.7046 43.6855 39.5092 43.5812 39.3425C43.4768 39.1757 43.3242 39.0458 43.1441 38.9705C42.9493 38.8746 42.7473 38.7946 42.54 38.7313C42.3434 38.6697 42.0753 38.6045 41.75 38.5284L41.6499 38.5066C41.164 38.4074 40.686 38.2718 40.2199 38.1008C39.9026 37.9857 39.6299 37.7705 39.4421 37.4868C39.2542 37.2031 39.161 36.8658 39.1761 36.5244C39.1586 36.2214 39.2193 35.919 39.3522 35.6471C39.4851 35.3751 39.6856 35.1429 39.934 34.9734C40.4795 34.6204 41.1173 34.4423 41.7642 34.4625C42.4348 34.4268 43.0967 34.6278 43.6374 35.0314C43.8787 35.2396 44.0708 35.5001 44.1995 35.7937C44.3282 36.0872 44.3902 36.4063 44.381 36.7274M45.8717 34.5893H46.8154V41.8297H45.8717V34.5893ZM51.4376 35.2525C51.0876 35.2332 50.7382 35.3002 50.4195 35.4479C50.1007 35.5956 49.822 35.8195 49.6073 36.1004C49.1692 36.7077 48.9451 37.4467 48.971 38.1986C48.9296 38.9829 49.171 39.7557 49.6502 40.3729C49.8781 40.628 50.1562 40.8318 50.4665 40.9713C50.7768 41.1108 51.1125 41.1829 51.4519 41.1829C51.7914 41.1829 52.1271 41.1108 52.4374 40.9713C52.7477 40.8318 53.0257 40.628 53.2536 40.3729C53.7282 39.7536 53.9668 38.9817 53.9257 38.1986C53.9687 37.4259 53.7337 36.6637 53.2643 36.0533C53.0417 35.7895 52.7629 35.5803 52.449 35.4416C52.135 35.3029 51.7941 35.2382 51.4519 35.2525M51.4519 34.4154C51.9221 34.3895 52.3921 34.4687 52.8288 34.6471C53.2655 34.8256 53.6582 35.099 53.9793 35.4481C54.604 36.2013 54.9268 37.1649 54.8837 38.1479C54.9232 39.1485 54.6059 40.13 53.99 40.9129C53.6791 41.2783 53.2895 41.5663 52.8512 41.7548C52.413 41.9433 51.9379 42.0272 51.4627 42C50.9488 42.0086 50.4391 41.9048 49.9684 41.6956C49.5485 41.5068 49.1804 41.2169 48.896 40.8513C48.6152 40.4833 48.4021 40.0672 48.2668 39.6228C48.1191 39.1381 48.0456 38.6334 48.0487 38.1261C47.9996 37.1367 48.333 36.1669 48.9782 35.4228C49.2957 35.0904 49.679 34.8297 50.1028 34.658C50.5267 34.4862 50.9815 34.4073 51.4376 34.4262L51.4519 34.4154ZM56.0098 34.5893H57.0429L60.8143 40.4671V34.5893H61.7294V41.8297H60.6642L56.9142 36.0243V41.8297H56.0098V34.5893ZM66.9522 38.8509L65.7368 35.5134L64.507 38.8582L66.9522 38.8509ZM66.2909 34.5893L69.0792 41.8369H68.0068L67.2167 39.6192H64.2175L63.4024 41.8369H62.4015L65.2077 34.5893H66.2909ZM74.5343 40.9926V41.8297H69.8013V34.5893H70.7415V40.9926H74.5343ZM147.746 9.65746H148.461C148.703 9.68144 148.945 9.62687 149.154 9.50164C149.215 9.45346 149.263 9.39163 149.295 9.32114C149.327 9.25065 149.343 9.17345 149.34 9.09577C149.343 8.99179 149.312 8.88985 149.251 8.80587C149.192 8.71619 149.105 8.64872 149.004 8.61381C148.814 8.5593 148.616 8.53726 148.418 8.54858H147.746V9.65746ZM147.163 11.7194V8.05211H148.407C148.718 8.0373 149.029 8.07153 149.33 8.15358C149.517 8.21909 149.677 8.34678 149.784 8.51596C149.893 8.6731 149.953 8.86006 149.955 9.05229C149.956 9.1828 149.931 9.31211 149.882 9.43276C149.832 9.55342 149.76 9.66304 149.669 9.75531C149.469 9.95705 149.201 10.0748 148.919 10.0851C149.031 10.1321 149.135 10.1983 149.226 10.2808C149.43 10.5019 149.61 10.7449 149.762 11.0055L150.202 11.7303H149.487L149.165 11.1541C149.013 10.8347 148.806 10.5452 148.554 10.2989C148.416 10.206 148.251 10.1615 148.086 10.172H147.728V11.7303L147.163 11.7194ZM148.64 6.99034C148.156 6.99052 147.68 7.11521 147.256 7.35272C146.815 7.59373 146.451 7.95859 146.209 8.40362C145.964 8.83399 145.835 9.32199 145.835 9.81872C145.835 10.3155 145.964 10.8035 146.209 11.2338C146.445 11.6882 146.803 12.0652 147.242 12.321C147.667 12.568 148.148 12.6979 148.638 12.6979C149.128 12.6979 149.609 12.568 150.034 12.321C150.475 12.0669 150.835 11.6895 151.071 11.2338C151.315 10.8021 151.444 10.313 151.444 9.8151C151.444 9.31724 151.315 8.82808 151.071 8.39638C150.827 7.95083 150.462 7.58593 150.02 7.34547C149.596 7.11107 149.122 6.98891 148.64 6.99034ZM148.64 6.42502C149.218 6.43013 149.785 6.58081 150.291 6.8635C150.823 7.15098 151.26 7.58921 151.55 8.12459C151.843 8.64278 151.998 9.23006 151.998 9.82778C151.998 10.4255 151.843 11.0128 151.55 11.531C151.266 12.0647 150.835 12.503 150.309 12.7921C149.8 13.089 149.222 13.2453 148.634 13.2453C148.047 13.2453 147.469 13.089 146.96 12.7921C146.434 12.5018 146.002 12.064 145.715 11.531C145.421 11.0131 145.265 10.4257 145.265 9.82778C145.265 9.22984 145.421 8.64243 145.715 8.12459C146.005 7.58921 146.442 7.15098 146.974 6.8635C147.484 6.57862 148.057 6.42787 148.64 6.42502Z" fill="#1D1D1B"/>
</g>
<defs>
<clipPath id="clip0_12_2989">
<rect width="152" height="42" fill="white"/>
</clipPath>
</defs>
</svg>
