<svg width="45" height="44" viewBox="0 0 45 44" fill="none" xmlns="http://www.w3.org/2000/svg">
<rect width="44" height="44" transform="translate(0.5)" fill="#404040"/>
<path d="M29.9648 13.3848C30.5496 13.1594 31.265 13.1872 31.7695 13.7119C32.2409 14.2024 32.328 14.9272 32.1865 15.665C32.185 15.675 32.1856 15.6854 32.1836 15.6953L29.3145 30.1201L29.3135 30.126C29.1909 30.7153 28.9204 31.3243 28.335 31.6074C27.8045 31.8638 27.2552 31.7412 26.8008 31.5098L26.6123 31.4053C26.5861 31.3894 26.5602 31.3715 26.5361 31.3525L22.6973 28.333L21.0615 30.0166L21.0605 30.0156C20.9559 30.1275 20.7868 30.3127 20.5605 30.4531C20.2994 30.6151 19.9986 30.7021 19.6426 30.7021C19.4353 30.7021 19.2375 30.616 19.0957 30.4648C18.954 30.3136 18.8811 30.1102 18.8945 29.9033L19.2041 25.1582L19.2266 25.0205C19.2609 24.8867 19.3319 24.7641 19.4326 24.667L23.2852 20.9512L17.9189 24.5576C17.7502 24.671 17.5433 24.7111 17.3467 24.6699L17.2637 24.6475L12.9502 23.2109L12.9463 23.21C12.6454 23.1081 12.3529 22.9563 12.1289 22.7314C11.8941 22.4956 11.721 22.1589 11.7539 21.7588C11.7853 21.3784 11.9918 21.0768 12.2217 20.8613C12.4535 20.6442 12.7551 20.4683 13.0957 20.3262L13.0996 20.3242L29.9492 13.3916L29.9648 13.3848Z" stroke="white" stroke-width="1.5" stroke-linejoin="round"/>
</svg>
