<svg width="45" height="44" viewBox="0 0 45 44" fill="none" xmlns="http://www.w3.org/2000/svg">
<rect width="44" height="44" transform="translate(0.5)" fill="#404040"/>
<path d="M32.0928 14.25C32.5907 14.2503 32.9815 14.6775 32.9395 15.1689L32.9248 15.2676C32.6613 16.569 32.1862 17.8117 31.5205 18.9395L31.2236 19.416C30.596 20.3699 29.8335 21.2133 28.9668 21.9219C29.9662 22.5986 30.8585 23.4411 31.6084 24.4189L31.7861 24.6562C32.6596 25.8569 33.3061 27.2247 33.6924 28.6836L33.7139 28.7852C33.7853 29.2913 33.3881 29.75 32.8711 29.75H29.3506C29.02 29.75 28.7293 29.5602 28.5889 29.2773L28.5381 29.1504C27.8855 27.0411 26.4446 25.4402 24.6035 24.9092V28.9004C24.6033 29.3697 24.2222 29.75 23.7529 29.75H23.4336C19.6603 29.75 16.628 28.3657 14.5303 25.7852C12.5814 23.3875 11.4948 20.0268 11.2832 15.9551L11.252 15.1309C11.2416 14.6635 11.616 14.2609 12.1016 14.2607H15.5098C15.9583 14.2607 16.305 14.6016 16.3545 15.0117L16.3604 15.0938L16.3799 15.6494C16.6015 20.3353 18.2549 22.6314 19.7148 23.5479V15.1113C19.7148 14.6419 20.096 14.2607 20.5654 14.2607H23.7529C24.2224 14.2607 24.6035 14.6419 24.6035 15.1113V19.5439C25.1659 19.2816 25.7539 18.8264 26.3057 18.2002C27.0998 17.2988 27.7536 16.1146 28.0928 14.876L28.1406 14.7441C28.2769 14.449 28.5747 14.25 28.9131 14.25H32.0928Z" stroke="white" stroke-width="1.5"/>
</svg>
