<svg width="45" height="44" viewBox="0 0 45 44" fill="none" xmlns="http://www.w3.org/2000/svg">
<rect width="44" height="44" transform="translate(0.5)" fill="#404040"/>
<path d="M17.4 30.6L17.7859 29.9569C17.6079 29.8501 17.3936 29.8218 17.194 29.8789L17.4 30.6ZM13.8 27L14.5259 27.1887C14.5732 27.0065 14.5504 26.8132 14.4618 26.6471L13.8 27ZM12.9404 30.306L13.6663 30.4947H13.6663L12.9404 30.306ZM14.183 31.5191L13.9769 30.798H13.9769L14.183 31.5191ZM26.5809 25.798L27.1359 26.3024L27.1362 26.3021L26.5809 25.798ZM25.8418 26.329L25.5577 25.6349L25.5537 25.6365L25.8418 26.329ZM21.9434 25.2805L21.5015 25.8865L21.5024 25.8871L21.9434 25.2805ZM20.4652 24.0205L19.9327 24.5487L19.9378 24.5538L20.4652 24.0205ZM19.2078 22.549L18.5993 22.9874L18.6018 22.9909L19.2078 22.549ZM18.3245 21.0145L17.6334 21.3059L17.6343 21.3081L18.3245 21.0145ZM18.1622 18.6745L18.8585 18.9534L18.86 18.9495L18.1622 18.6745ZM18.6805 17.923L19.1948 18.4689L19.2006 18.4635L19.2063 18.4579L18.6805 17.923ZM19.983 17.581L19.6588 18.2574L19.6691 18.2621L19.983 17.581ZM20.2849 17.833L19.6685 18.2604L19.6735 18.2674L20.2849 17.833ZM21.3305 19.3045L20.7191 19.7389L20.7222 19.7432L21.3305 19.3045ZM21.5108 19.6195L20.8167 19.9039L20.8216 19.9153L21.5108 19.6195ZM21.4792 20.2135L20.8388 19.8231L20.8325 19.8335L20.8265 19.844L21.4792 20.2135ZM21.2268 20.533L20.6969 20.0023L20.6918 20.0074L20.6867 20.0126L21.2268 20.533ZM20.8843 20.8885L21.4143 21.4192L21.4194 21.4141L21.4244 21.4089L20.8843 20.8885ZM20.8257 21.172L20.0982 21.3542L20.1086 21.3956L20.1236 21.4357L20.8257 21.172ZM20.8618 21.262L20.1504 21.4995L20.1716 21.5629L20.2036 21.6216L20.8618 21.262ZM21.2809 21.838L20.7087 22.3229L20.7142 22.3292L21.2809 21.838ZM21.9344 22.549L21.3994 23.0747L21.4044 23.0797L21.4095 23.0847L21.9344 22.549ZM22.651 23.2105L22.166 23.7826L22.1669 23.7834L22.651 23.2105ZM23.2323 23.6245L22.8818 24.2876L22.9171 24.3062L22.9542 24.321L23.2323 23.6245ZM23.3135 23.6605L23.0184 24.35L23.0343 24.3568L23.0505 24.3629L23.3135 23.6605ZM23.6109 23.602L23.0845 23.0678L23.081 23.0713L23.6109 23.602ZM23.9534 23.2645L24.4798 23.7987L24.4834 23.7952L23.9534 23.2645ZM24.2779 23.0125L24.6244 23.6777L24.6463 23.6662L24.6674 23.6534L24.2779 23.0125ZM25.1883 23.152L25.622 22.5401L25.6158 22.5358L25.6096 22.5315L25.1883 23.152ZM26.68 24.2095L26.2462 24.8214L26.2535 24.8264L26.68 24.2095ZM26.9279 24.4975L27.6241 24.2186L27.6194 24.2067L27.6142 24.1951L26.9279 24.4975ZM17.4 30.6L17.0141 31.2431C18.632 32.2139 20.5656 32.75 22.5 32.75V32V31.25C20.8344 31.25 19.168 30.7861 17.7859 29.9569L17.4 30.6ZM22.5 32V32.75C28.4142 32.75 33.25 27.9142 33.25 22H32.5H31.75C31.75 27.0858 27.5858 31.25 22.5 31.25V32ZM32.5 22H33.25C33.25 16.0858 28.4142 11.25 22.5 11.25V12V12.75C27.5858 12.75 31.75 16.9142 31.75 22H32.5ZM22.5 12V11.25C16.5858 11.25 11.75 16.0858 11.75 22H12.5H13.25C13.25 16.9142 17.4142 12.75 22.5 12.75V12ZM12.5 22H11.75C11.75 23.9405 12.2891 25.7608 13.1382 27.3529L13.8 27L14.4618 26.6471C13.7109 25.2392 13.25 23.6595 13.25 22H12.5ZM13.8 27L13.0741 26.8113L12.2146 30.1173L12.9404 30.306L13.6663 30.4947L14.5259 27.1887L13.8 27ZM14.183 31.5191L14.389 32.2403L17.606 31.3211L17.4 30.6L17.194 29.8789L13.9769 30.798L14.183 31.5191ZM12.9404 30.306L12.2146 30.1173C11.8738 31.4279 13.0869 32.6123 14.389 32.2403L14.183 31.5191L13.9769 30.798C13.7909 30.8512 13.6176 30.6819 13.6663 30.4947L12.9404 30.306ZM27 24.8485H26.25C26.25 24.8978 26.2393 24.955 26.2093 25.0184L26.8873 25.339L27.5653 25.6596C27.6886 25.399 27.75 25.1232 27.75 24.8485H27ZM26.8873 25.339L26.2093 25.0184C26.1625 25.1173 26.1038 25.2077 26.0255 25.2939L26.5809 25.798L27.1362 26.3021C27.3194 26.1003 27.4589 25.8847 27.5653 25.6596L26.8873 25.339ZM26.5809 25.798L26.0258 25.2936C25.8711 25.4638 25.7176 25.5694 25.5577 25.6349L25.8418 26.329L26.1258 27.0231C26.5157 26.8636 26.849 26.6182 27.1359 26.3024L26.5809 25.798ZM25.8418 26.329L25.5537 25.6365C25.378 25.7096 25.1834 25.75 24.9629 25.75V26.5V27.25C25.3735 27.25 25.7647 27.1734 26.1299 27.0215L25.8418 26.329ZM24.9629 26.5V25.75C24.6217 25.75 24.2304 25.6699 23.7874 25.4814L23.4937 26.1715L23.2001 26.8616C23.7936 27.1142 24.3848 27.25 24.9629 27.25V26.5ZM23.4937 26.1715L23.7874 25.4814C23.3265 25.2853 22.8573 25.0176 22.3844 24.6739L21.9434 25.2805L21.5024 25.8871C22.0571 26.2904 22.6244 26.6167 23.2001 26.8616L23.4937 26.1715ZM21.9434 25.2805L22.3854 24.6745C21.898 24.3191 21.4352 23.925 20.9926 23.4872L20.4652 24.0205L19.9378 24.5538C20.4326 25.043 20.9523 25.4859 21.5015 25.8865L21.9434 25.2805ZM20.4652 24.0205L20.9977 23.4923C20.5591 23.0502 20.1648 22.5884 19.8138 22.1071L19.2078 22.549L18.6018 22.9909C18.999 23.5356 19.4429 24.0548 19.9327 24.5487L20.4652 24.0205ZM19.2078 22.549L19.8164 22.1106C19.4732 21.6343 19.2055 21.1695 19.0146 20.7209L18.3245 21.0145L17.6343 21.3081C17.8761 21.8765 18.2033 22.4377 18.5993 22.9874L19.2078 22.549ZM18.3245 21.0145L19.0156 20.7231C18.8309 20.2851 18.75 19.8938 18.75 19.543H18H17.25C17.25 20.1282 17.3854 20.7179 17.6334 21.3059L18.3245 21.0145ZM18 19.543H18.75C18.75 19.326 18.7882 19.1289 18.8585 18.9534L18.1622 18.6745L17.466 18.3956C17.32 18.7601 17.25 19.148 17.25 19.543H18ZM18.1622 18.6745L18.86 18.9495C18.9252 18.784 19.0312 18.623 19.1948 18.4689L18.6805 17.923L18.1663 17.3771C17.8521 17.673 17.6156 18.016 17.4645 18.3995L18.1622 18.6745ZM18.6805 17.923L19.2063 18.4579C19.3814 18.2858 19.5159 18.25 19.6179 18.25V17.5V16.75C19.0529 16.75 18.5565 16.9932 18.1548 17.3881L18.6805 17.923ZM19.6179 17.5V18.25C19.6393 18.25 19.6538 18.2549 19.6588 18.2573L19.983 17.581L20.3071 16.9047C20.0869 16.7991 19.849 16.75 19.6179 16.75V17.5ZM19.983 17.581L19.6691 18.2621C19.6742 18.2645 19.6741 18.2651 19.6716 18.263C19.6705 18.2621 19.6695 18.2612 19.6687 18.2603C19.6679 18.2595 19.6679 18.2594 19.6686 18.2603L20.2849 17.833L20.9013 17.4057C20.7376 17.1696 20.5254 17.0052 20.2969 16.8999L19.983 17.581ZM20.2849 17.833L19.6735 18.2674L20.7191 19.7389L21.3305 19.3045L21.9419 18.8701L20.8963 17.3986L20.2849 17.833ZM21.3305 19.3045L20.7222 19.7432C20.7761 19.8179 20.8029 19.87 20.8168 19.9038L21.5108 19.6195L22.2048 19.3352C22.1375 19.171 22.0472 19.0161 21.9388 18.8658L21.3305 19.3045ZM21.5108 19.6195L20.8216 19.9153C20.8262 19.9261 20.8273 19.9311 20.8269 19.9297C20.8267 19.9287 20.826 19.9254 20.8253 19.9198C20.8246 19.9141 20.8239 19.9055 20.8239 19.894H21.5739H22.3239C22.3239 19.6826 22.2698 19.4865 22.2 19.3237L21.5108 19.6195ZM21.5739 19.894H20.8239C20.8239 19.8742 20.8269 19.8568 20.8309 19.8431C20.8348 19.8297 20.8388 19.8231 20.8388 19.8231L21.4792 20.2135L22.1196 20.6039C22.247 20.3949 22.3239 20.1532 22.3239 19.894H21.5739ZM21.4792 20.2135L20.8265 19.844C20.8099 19.8734 20.7711 19.9282 20.6969 20.0023L21.2268 20.533L21.7568 21.0637C21.8989 20.9218 22.0314 20.7606 22.1319 20.583L21.4792 20.2135ZM21.2268 20.533L20.6867 20.0126L20.3442 20.3681L20.8843 20.8885L21.4244 21.4089L21.7669 21.0534L21.2268 20.533ZM20.8843 20.8885L20.3544 20.3578C20.1524 20.5595 20.0622 20.8143 20.0622 21.0685H20.8122H21.5622C21.5622 21.112 21.5551 21.1753 21.5268 21.2467C21.4979 21.3195 21.4561 21.3774 21.4143 21.4192L20.8843 20.8885ZM20.8122 21.0685H20.0622C20.0622 21.1757 20.0768 21.2688 20.0982 21.3542L20.8257 21.172L21.5533 20.9898C21.5542 20.9936 21.5568 21.0048 21.559 21.021C21.5612 21.0378 21.5622 21.0541 21.5622 21.0685H20.8122ZM20.8257 21.172L20.1236 21.4357C20.137 21.4712 20.1504 21.5024 20.1549 21.513C20.1579 21.52 20.1581 21.5206 20.1576 21.5193C20.1568 21.5175 20.154 21.5102 20.1504 21.4995L20.8618 21.262L21.5732 21.0245C21.5581 20.9793 21.5414 20.9404 21.536 20.9278C21.532 20.9183 21.5307 20.9151 21.529 20.9112C21.5278 20.9083 21.5276 20.9077 21.5279 20.9083L20.8257 21.172ZM20.8618 21.262L20.2036 21.6216C20.3202 21.8351 20.4972 22.0732 20.7087 22.3229L21.2809 21.838L21.8531 21.3531C21.6681 21.1348 21.5656 20.9859 21.52 20.9024L20.8618 21.262ZM21.2809 21.838L20.7142 22.3292C20.9246 22.572 21.1517 22.8225 21.3994 23.0747L21.9344 22.549L22.4694 22.0233C22.2484 21.7985 22.0428 21.572 21.8477 21.3468L21.2809 21.838ZM21.9344 22.549L21.4095 23.0847C21.6589 23.3291 21.9076 23.5635 22.166 23.7826L22.651 23.2105L23.136 22.6384C22.9166 22.4525 22.6967 22.2459 22.4594 22.0133L21.9344 22.549ZM22.651 23.2105L22.1669 23.7834C22.4235 24.0002 22.6632 24.172 22.8818 24.2876L23.2323 23.6245L23.5829 22.9614C23.495 22.915 23.3471 22.8168 23.135 22.6376L22.651 23.2105ZM23.2323 23.6245L22.9542 24.321C22.9483 24.3187 22.9452 24.3173 22.9466 24.3179C22.9481 24.3185 22.9507 24.3197 22.9574 24.3228C22.9683 24.3277 22.9922 24.3388 23.0184 24.35L23.3135 23.6605L23.6085 22.971C23.6031 22.9687 23.5978 22.9663 23.5816 22.9588C23.5748 22.9557 23.5645 22.951 23.5536 22.9462C23.5426 22.9413 23.5276 22.9348 23.5105 22.928L23.2323 23.6245ZM23.3135 23.6605L23.0505 24.3629C23.196 24.4174 23.3276 24.4285 23.4261 24.4285V23.6785V22.9285C23.4436 22.9285 23.503 22.9306 23.5765 22.9581L23.3135 23.6605ZM23.4261 23.6785V24.4285C23.7119 24.4285 23.9582 24.3151 24.1408 24.1327L23.6109 23.602L23.081 23.0713C23.1137 23.0386 23.1648 22.9986 23.2351 22.9686C23.3063 22.9384 23.3735 22.9285 23.4261 22.9285V23.6785ZM23.6109 23.602L24.1373 24.1362L24.4798 23.7987L23.9534 23.2645L23.427 22.7303L23.0845 23.0678L23.6109 23.602ZM23.9534 23.2645L24.4834 23.7952C24.5657 23.713 24.6127 23.6838 24.6244 23.6777L24.2779 23.0125L23.9314 22.3473C23.7358 22.4492 23.5665 22.591 23.4235 22.7338L23.9534 23.2645ZM24.2779 23.0125L24.6674 23.6534C24.6714 23.651 24.6646 23.6557 24.6483 23.6605C24.6312 23.6656 24.6133 23.668 24.5979 23.668V22.918V22.168C24.3317 22.168 24.0948 22.2461 23.8884 22.3716L24.2779 23.0125ZM24.5979 22.918V23.668C24.5874 23.668 24.5798 23.6668 24.5765 23.6661C24.5735 23.6655 24.5774 23.666 24.5892 23.6708L24.8728 22.9765L25.1564 22.2822C24.9796 22.21 24.7933 22.168 24.5979 22.168V22.918ZM24.8728 22.9765L24.5892 23.6708C24.6254 23.6856 24.6822 23.7149 24.767 23.7725L25.1883 23.152L25.6096 22.5315C25.4691 22.4361 25.3185 22.3484 25.1564 22.2822L24.8728 22.9765ZM25.1883 23.152L24.7545 23.7639L26.2463 24.8214L26.68 24.2095L27.1138 23.5976L25.622 22.5401L25.1883 23.152ZM26.68 24.2095L26.2535 24.8264C26.2663 24.8353 26.2664 24.8374 26.2607 24.8308C26.2579 24.8276 26.2545 24.823 26.2508 24.8173C26.2472 24.8115 26.2441 24.8056 26.2416 24.7999L26.9279 24.4975L27.6142 24.1951C27.5007 23.9375 27.3201 23.7402 27.1065 23.5926L26.68 24.2095ZM26.9279 24.4975L26.2317 24.7764C26.2413 24.8005 26.2455 24.8156 26.2474 24.8248C26.2492 24.8333 26.25 24.8403 26.25 24.8485H27H27.75C27.75 24.6074 27.6966 24.3997 27.6241 24.2186L26.9279 24.4975Z" fill="white"/>
</svg>
