<svg width="94" height="94" viewBox="0 0 94 94" fill="none" xmlns="http://www.w3.org/2000/svg">
<g clip-path="url(#clip0_1_5)">
<rect width="94" height="94" rx="47" fill="#F6F5FA"/>
<circle cx="44" cy="17" r="3" fill="#ECEAF4"/>
<circle cx="56.5" cy="52.5" r="5.5" fill="#ECEAF4"/>
<circle cx="35" cy="76" r="4" fill="#ECEAF4"/>
<circle cx="46" cy="78" r="2" fill="#ECEAF4"/>
<circle cx="75.5" cy="49.5" r="5.5" fill="#ECEAF4"/>
<circle cx="24.5" cy="48.5" r="11.5" fill="#ECEAF4"/>
<path d="M67.7458 35.0138V27.4828C67.7458 26.8243 67.4886 26.1928 67.0309 25.7272C66.5732 25.2616 65.9524 25 65.3051 25H31.1356C29.6259 25.0022 28.1786 25.6132 27.1111 26.6992C26.0435 27.7851 25.4428 29.2573 25.4407 30.7931V46.9352C25.4146 46.9352 25.3813 46.9459 25.3593 46.9492C24.7082 47.0425 24.1117 47.3707 23.6786 47.874C23.2455 48.3773 23.0047 49.0222 23 49.691V58.5868C23.1625 61.9956 24.4276 65.2544 26.5985 67.8564C28.7695 70.4584 31.7248 72.2579 35.0049 72.9752C35.1351 73.0083 35.2717 73.0083 35.4019 72.9752C38.6021 72.2467 41.4985 70.5193 43.6864 68.0345H66.9322C68.0107 68.0332 69.0446 67.5968 69.8071 66.8211C70.5697 66.0453 70.9987 64.9936 71 63.8966V39.069C70.9987 38.1155 70.6743 37.1916 70.0815 36.4529C69.4888 35.7143 68.6639 35.206 67.7458 35.0138ZM31.1356 26.6552H65.3051C65.5209 26.6552 65.7278 26.7424 65.8804 26.8976C66.0329 27.0528 66.1186 27.2633 66.1186 27.4828V29.9655H29.5085C29.2927 29.9655 29.0858 30.0527 28.9332 30.2079C28.7806 30.3631 28.6949 30.5736 28.6949 30.7931C28.6949 31.0126 28.7806 31.2231 28.9332 31.3783C29.0858 31.5335 29.2927 31.6207 29.5085 31.6207H66.1186V34.931H31.1356C30.0567 34.931 29.0221 34.4951 28.2592 33.7191C27.4964 32.9431 27.0678 31.8906 27.0678 30.7931C27.0678 29.6957 27.4964 28.6432 28.2592 27.8671C29.0221 27.0911 30.0567 26.6552 31.1356 26.6552ZM35.2034 71.3183C24.7898 68.536 24.6271 58.9931 24.6271 58.5868V49.691C24.6271 49.1308 25.0355 48.6566 25.5822 48.5862C28.8974 48.1742 31.9965 46.6954 34.4273 44.3655C34.5281 44.2599 34.6488 44.176 34.7821 44.1186C34.9154 44.0613 35.0587 44.0318 35.2034 44.0318C35.3481 44.0318 35.4914 44.0613 35.6247 44.1186C35.758 44.176 35.8787 44.2599 35.9795 44.3655C38.4103 46.6954 41.5094 48.1742 44.8245 48.5862C45.0887 48.6205 45.3315 48.7516 45.5073 48.955C45.6832 49.1584 45.78 49.4202 45.7797 49.691V58.5868C45.6257 61.5927 44.5085 64.4647 42.5986 66.7638C40.6887 69.0629 38.0913 70.6626 35.2034 71.3183ZM66.9322 66.3793H44.9165C46.3962 64.0451 47.2543 61.3599 47.4068 58.5868V49.691C47.4022 49.0228 47.1619 48.3784 46.7297 47.8752C46.2974 47.372 45.7019 47.0434 45.0515 46.9492C42.0898 46.588 39.3179 45.2773 37.1372 43.2069C36.6204 42.6928 35.9262 42.405 35.2034 42.405C34.4805 42.405 33.7864 42.6928 33.2696 43.2069C31.5448 44.8932 29.4006 46.0692 27.0678 46.6083V34.84C27.5969 35.3926 28.2294 35.8318 28.928 36.1317C29.6267 36.4316 30.3773 36.5862 31.1356 36.5862H66.9322C67.5795 36.5862 68.2003 36.8478 68.658 37.3134C69.1157 37.779 69.3729 38.4105 69.3729 39.069V47.3448H65.3051C64.2262 47.3448 63.1916 47.7808 62.4287 48.5568C61.6659 49.3328 61.2373 50.3853 61.2373 51.4828C61.2373 52.5802 61.6659 53.6327 62.4287 54.4087C63.1916 55.1847 64.2262 55.6207 65.3051 55.6207H69.3729V63.8966C69.3729 64.555 69.1157 65.1865 68.658 65.6521C68.2003 66.1177 67.5795 66.3793 66.9322 66.3793ZM69.3729 53.9655H65.3051C64.6578 53.9655 64.037 53.7039 63.5793 53.2383C63.1215 52.7727 62.8644 52.1412 62.8644 51.4828C62.8644 50.8243 63.1215 50.1928 63.5793 49.7272C64.037 49.2616 64.6578 49 65.3051 49H69.3729V53.9655Z" fill="#65E8C9"/>
<path d="M65.3051 52.3103C65.7544 52.3103 66.1186 51.9398 66.1186 51.4828C66.1186 51.0257 65.7544 50.6552 65.3051 50.6552C64.8558 50.6552 64.4915 51.0257 64.4915 51.4828C64.4915 51.9398 64.8558 52.3103 65.3051 52.3103Z" fill="#65E8C9"/>
<path d="M51.4746 38.2414H49.8475C49.6317 38.2414 49.4248 38.3286 49.2722 38.4838C49.1196 38.639 49.0339 38.8495 49.0339 39.069C49.0339 39.2885 49.1196 39.499 49.2722 39.6542C49.4248 39.8094 49.6317 39.8966 49.8475 39.8966H51.4746C51.6903 39.8966 51.8973 39.8094 52.0499 39.6542C52.2024 39.499 52.2881 39.2885 52.2881 39.069C52.2881 38.8495 52.2024 38.639 52.0499 38.4838C51.8973 38.3286 51.6903 38.2414 51.4746 38.2414ZM67.7458 39.069C67.7458 38.8495 67.6601 38.639 67.5075 38.4838C67.3549 38.3286 67.148 38.2414 66.9322 38.2414H54.7288C54.513 38.2414 54.3061 38.3286 54.1535 38.4838C54.001 38.639 53.9153 38.8495 53.9153 39.069C53.9153 39.2885 54.001 39.499 54.1535 39.6542C54.3061 39.8094 54.513 39.8966 54.7288 39.8966H66.9322C67.148 39.8966 67.3549 39.8094 67.5075 39.6542C67.6601 39.499 67.7458 39.2885 67.7458 39.069ZM43.5017 50.037C40.6537 49.4969 37.9832 48.2425 35.7322 46.3873C35.5853 46.2609 35.3991 46.1915 35.2066 46.1915C35.0142 46.1915 34.828 46.2609 34.6811 46.3873C32.4306 48.2434 29.7599 49.4979 26.9116 50.037C26.7278 50.0751 26.5627 50.1767 26.4441 50.3245C26.3255 50.4723 26.2607 50.6572 26.2607 50.848V58.5868C26.2607 58.9228 26.36 66.8452 34.9715 69.5283C35.1269 69.5767 35.2929 69.5767 35.4483 69.5283C43.7734 66.9321 44.1379 59.4466 44.1525 58.5868V50.848C44.1526 50.6572 44.0878 50.4723 43.9692 50.3245C43.8506 50.1767 43.6855 50.0751 43.5017 50.037ZM42.5254 58.5727C42.5132 59.2869 42.2049 65.5509 35.2034 67.869C27.9627 65.469 27.8814 58.8698 27.8814 58.5868V51.5167C30.535 50.9173 33.0316 49.7468 35.2034 48.0839C37.3752 49.7468 39.8718 50.9173 42.5254 51.5167V58.5727Z" fill="#65E8C9"/>
<path d="M30.322 55.6207C30.5378 55.6206 30.7447 55.5334 30.8972 55.3782L33.3379 52.8955C33.4861 52.7394 33.5681 52.5303 33.5662 52.3133C33.5644 52.0963 33.4788 51.8888 33.328 51.7353C33.1771 51.5819 32.9731 51.4948 32.7598 51.493C32.5465 51.4911 32.341 51.5745 32.1875 51.7252L29.7468 54.208C29.6331 54.3237 29.5556 54.4712 29.5243 54.6317C29.4929 54.7922 29.509 54.9586 29.5706 55.1098C29.6321 55.261 29.7364 55.3902 29.8701 55.4812C30.0039 55.5721 30.1612 55.6207 30.322 55.6207ZM29.7468 60.3437C29.8994 60.4989 30.1063 60.586 30.322 60.586C30.5378 60.586 30.7447 60.4989 30.8972 60.3437L38.2193 52.8955C38.3675 52.7394 38.4495 52.5303 38.4476 52.3133C38.4457 52.0963 38.3602 51.8888 38.2093 51.7353C38.0585 51.5819 37.8545 51.4948 37.6411 51.493C37.4278 51.4911 37.2223 51.5745 37.0689 51.7252L29.7468 59.1735C29.5943 59.3287 29.5086 59.5392 29.5086 59.7586C29.5086 59.9781 29.5943 60.1885 29.7468 60.3437Z" fill="#65E8C9"/>
</g>
<defs>
<clipPath id="clip0_1_5">
<rect width="94" height="94" rx="47" fill="white"/>
</clipPath>
</defs>
</svg>
