<svg width="94" height="94" viewBox="0 0 94 94" fill="none" xmlns="http://www.w3.org/2000/svg">
<g clip-path="url(#clip0_1_16)">
<rect width="94" height="94" rx="47" fill="#F6F5FA"/>
<circle cx="44" cy="17" r="3" fill="#ECEAF4"/>
<circle cx="56.5" cy="52.5" r="5.5" fill="#ECEAF4"/>
<circle cx="35" cy="76" r="4" fill="#ECEAF4"/>
<circle cx="46" cy="78" r="2" fill="#ECEAF4"/>
<circle cx="75.5" cy="49.5" r="5.5" fill="#ECEAF4"/>
<circle cx="24.5" cy="48.5" r="11.5" fill="#ECEAF4"/>
<path d="M46.2854 72.8899C46.5171 72.963 46.7585 73.0001 47.0012 73C47.238 72.9995 47.4734 72.9636 47.6998 72.8934C51.1456 71.894 54.4018 70.3187 57.3336 68.2329C57.5078 68.096 57.6231 67.8964 57.6554 67.6757C57.6878 67.455 57.6347 67.2302 57.5072 67.0481C57.3798 66.8659 57.1878 66.7405 56.9712 66.6979C56.7546 66.6553 56.5301 66.6988 56.3444 66.8193C53.565 68.7954 50.4779 70.2869 47.2112 71.2319C47.069 71.2777 46.9162 71.2777 46.774 71.2319C42.5075 70.0063 38.5618 67.8422 35.2192 64.8943C35.1361 64.8115 35.0371 64.7468 34.9284 64.704C34.8197 64.6613 34.7035 64.6414 34.5869 64.6457C34.4703 64.65 34.3558 64.6782 34.2504 64.7288C34.145 64.7794 34.0509 64.8512 33.9739 64.9398C33.8969 65.0284 33.8386 65.132 33.8026 65.2442C33.7665 65.3563 33.7535 65.4748 33.7643 65.5923C33.7752 65.7097 33.8096 65.8237 33.8655 65.9272C33.9214 66.0308 33.9976 66.1217 34.0895 66.1944C37.6169 69.308 41.7817 71.5945 46.2854 72.8899ZM24.345 32.3093C24.2334 32.2942 24.12 32.3014 24.0111 32.3307C23.9023 32.3599 23.8002 32.4106 23.7107 32.4797C23.6213 32.5488 23.5461 32.6351 23.4897 32.7336C23.4332 32.8322 23.3965 32.941 23.3816 33.0538C22.7773 37.6224 22.0572 49.3381 28.4004 59.4624C28.4606 59.5586 28.539 59.6419 28.631 59.7074C28.723 59.773 28.8269 59.8195 28.9368 59.8445C29.0466 59.8694 29.1603 59.8723 29.2712 59.8528C29.3821 59.8334 29.4882 59.792 29.5833 59.7311C29.6784 59.6702 29.7607 59.591 29.8256 59.4979C29.8904 59.4049 29.9365 59.2998 29.9611 59.1887C29.9858 59.0777 29.9886 58.9628 29.9694 58.8506C29.9501 58.7384 29.9092 58.6312 29.849 58.535C23.8059 48.8934 24.5011 37.664 25.0796 33.2835C25.1099 33.0558 25.0495 32.8254 24.9117 32.6427C24.774 32.46 24.5702 32.3401 24.345 32.3093ZM30.7482 61.3398C30.6604 61.4112 30.5873 61.4993 30.5333 61.5993C30.4792 61.6992 30.4451 61.809 30.433 61.9222C30.4209 62.0355 30.431 62.15 30.4627 62.2594C30.4945 62.3687 30.5472 62.4706 30.6179 62.5593C30.875 62.8817 31.1502 63.2041 31.4331 63.5266C31.5078 63.6119 31.5983 63.6816 31.6997 63.7316C31.801 63.7815 31.911 63.8108 32.0235 63.8178C32.136 63.8247 32.2488 63.8092 32.3554 63.7721C32.462 63.735 32.5603 63.6771 32.6447 63.6015C32.7291 63.526 32.798 63.4344 32.8474 63.332C32.8968 63.2295 32.9258 63.1183 32.9327 63.0045C32.9396 62.8907 32.9242 62.7767 32.8876 62.6689C32.8509 62.5612 32.7935 62.4618 32.7188 62.3764C32.4587 62.0801 32.2046 61.7785 31.9568 61.4715C31.8862 61.3824 31.7988 61.3082 31.6998 61.2533C31.6007 61.1984 31.4919 61.1638 31.3796 61.1515C31.2673 61.1393 31.1537 61.1496 31.0453 61.1819C30.9369 61.2142 30.836 61.2679 30.7482 61.3398ZM68.4204 30.1997C65.306 29.6516 62.2547 28.7848 59.3137 27.6124C55.4666 26.0731 51.8391 24.0229 48.527 21.5158C48.0867 21.181 47.5508 21 46.9999 21C46.449 21 45.9131 21.181 45.4728 21.5158C43.8225 22.7639 42.093 23.9012 40.2955 24.9204C40.197 24.9759 40.1104 25.0506 40.0405 25.14C39.9707 25.2295 39.9189 25.332 39.8883 25.4417C39.8577 25.5515 39.8488 25.6662 39.8621 25.7794C39.8754 25.8926 39.9106 26.002 39.9658 26.1014C40.021 26.2008 40.095 26.2883 40.1837 26.3587C40.2723 26.4291 40.3738 26.4812 40.4824 26.5119C40.591 26.5426 40.7045 26.5513 40.8164 26.5376C40.9283 26.5239 41.0365 26.488 41.1346 26.432C42.9991 25.373 44.7927 24.1914 46.504 22.8948C46.6463 22.7842 46.8208 22.7242 47.0003 22.7242C47.1798 22.7242 47.3543 22.7842 47.4966 22.8948C50.9316 25.4967 54.694 27.6244 58.6846 29.222C61.7366 30.439 64.903 31.3392 68.135 31.9089C68.3108 31.939 68.4724 32.0256 68.5959 32.1558C68.7194 32.2859 68.7982 32.4528 68.8207 32.6317C69.3719 36.2946 70.2111 45.7957 66.1034 54.8757C66.0545 54.9794 66.0264 55.092 66.0209 55.2068C66.0153 55.3216 66.0324 55.4364 66.0712 55.5445C66.1099 55.6526 66.1696 55.7518 66.2466 55.8364C66.3237 55.9209 66.4166 55.9891 66.52 56.037C66.6233 56.0849 66.7351 56.1115 66.8487 56.1153C66.9624 56.1191 67.0756 56.1 67.1819 56.0591C67.2881 56.0182 67.3853 55.9564 67.4677 55.8771C67.5501 55.7979 67.6161 55.7029 67.6618 55.5977C71.9623 46.0921 71.0905 36.1879 70.5162 32.3691C70.439 31.8297 70.1944 31.329 69.8178 30.9392C69.4412 30.5493 68.9519 30.2904 68.4204 30.1997Z" fill="#65E8C9"/>
<path d="M46.174 66.7829C46.4389 66.8817 46.7189 66.9324 47.0012 66.9328C47.279 66.932 47.5545 66.8825 47.8155 66.7864C48.9984 66.3666 50.1514 65.8653 51.2665 65.286C51.3666 65.2339 51.4556 65.1623 51.5284 65.0754C51.6012 64.9885 51.6563 64.888 51.6907 64.7795C51.725 64.6711 51.7379 64.5569 51.7286 64.4434C51.7193 64.3299 51.6879 64.2194 51.6364 64.1181C51.5848 64.0169 51.5141 63.9269 51.4281 63.8533C51.3422 63.7797 51.2427 63.724 51.1355 63.6892C51.0282 63.6545 50.9152 63.6415 50.803 63.6509C50.6908 63.6603 50.5815 63.692 50.4813 63.7441C49.4332 64.2897 48.3491 64.7617 47.2369 65.1569C47.0811 65.2181 46.9084 65.2181 46.7526 65.1569C42.9096 63.8257 39.4555 61.5464 36.703 58.5255C30.233 51.3914 29.663 41.8399 29.8979 36.7999C29.9056 36.6655 29.9391 36.5339 29.9964 36.4124C30.0795 36.2078 30.082 35.9789 30.0035 35.7724C29.9251 35.566 29.7715 35.3977 29.5744 35.302C29.3772 35.2063 29.1513 35.1904 28.9429 35.2577C28.7345 35.3249 28.5595 35.4701 28.4535 35.6636C28.3017 35.9904 28.2124 36.3433 28.1904 36.7037C27.9418 42.0315 28.5538 52.1047 35.443 59.7008C38.3824 62.9265 42.0705 65.3605 46.174 66.7829ZM62.751 51.3316C62.8452 51.3668 62.9447 51.3849 63.045 51.3853C63.2207 51.3853 63.3922 51.3306 63.5362 51.2287C63.6801 51.1269 63.7897 50.9828 63.8499 50.8159C65.4114 46.2855 66.0783 41.4894 65.8129 36.6993C65.7964 36.349 65.7115 36.0055 65.5629 35.6886C65.4143 35.3717 65.205 35.0877 64.9471 34.8532C64.8654 34.7677 64.7672 34.7002 64.6587 34.6548C64.5501 34.6093 64.4334 34.587 64.3159 34.5891C64.1984 34.5911 64.0826 34.6176 63.9756 34.6669C63.8687 34.7161 63.7729 34.7871 63.6942 34.8753C63.6155 34.9636 63.5556 35.0672 63.5183 35.1799C63.4809 35.2925 63.4668 35.4118 63.4769 35.5301C63.487 35.6485 63.521 35.7636 63.577 35.8681C63.6329 35.9726 63.7095 36.0643 63.8019 36.1377C63.8916 36.2199 63.9643 36.3194 64.0158 36.4302C64.0673 36.541 64.0966 36.6611 64.1019 36.7834C64.3564 41.3414 63.7247 45.9056 62.2427 50.2178C62.2037 50.3247 62.1859 50.4383 62.1903 50.5521C62.1947 50.666 62.2213 50.7778 62.2685 50.8812C62.3157 50.9847 62.3826 51.0777 62.4654 51.155C62.5482 51.2323 62.6453 51.2923 62.751 51.3316ZM46.6677 28.8675C46.789 28.8122 46.922 28.7885 47.0547 28.7985C47.1873 28.8084 47.3154 28.8518 47.4272 28.9247C49.8947 30.5347 52.492 31.9316 55.1915 33.1006C55.3989 33.1826 55.6297 33.1798 55.8351 33.0927C56.0404 33.0056 56.2042 32.8412 56.2918 32.6342C56.3793 32.4272 56.3838 32.1938 56.3042 31.9835C56.2246 31.7733 56.0672 31.6026 55.8653 31.5076C53.2542 30.3763 50.7421 29.0246 48.3555 27.4668C48.0054 27.2391 47.6048 27.1029 47.1898 27.0705C46.7747 27.0381 46.3582 27.1106 45.9777 27.2814C45.7815 27.3809 45.6305 27.5527 45.5558 27.7614C45.4812 27.9702 45.4886 28.1999 45.5765 28.4033C45.6645 28.6067 45.8262 28.7682 46.0284 28.8546C46.2307 28.9409 46.458 28.9456 46.6635 28.8675H46.6677ZM60.2789 35.0152C60.359 35.0395 60.4422 35.0518 60.5258 35.0517C60.7315 35.0515 60.9304 34.9765 61.086 34.8404C61.2416 34.7042 61.3436 34.5161 61.3733 34.3102C61.403 34.1043 61.3586 33.8945 61.248 33.7191C61.1374 33.5436 60.968 33.4142 60.7709 33.3546C60.3535 33.2265 59.9396 33.0869 59.5297 32.9359C59.3158 32.858 59.08 32.8692 58.8743 32.9671C58.6685 33.0649 58.5096 33.2414 58.4325 33.4577C58.3555 33.674 58.3665 33.9124 58.4633 34.1205C58.5601 34.3286 58.7346 34.4892 58.9486 34.5671C59.3926 34.7284 59.8357 34.8809 60.2789 35.0152Z" fill="#65E8C9"/>
<path d="M42.3818 44.8146C41.8723 44.3098 41.1875 44.0271 40.4742 44.0271C39.7609 44.0271 39.076 44.3098 38.5665 44.8146L37.4933 45.9214C36.9938 46.4421 36.7144 47.1391 36.7144 47.8646C36.7144 48.5901 36.9938 49.2871 37.4933 49.8078L44.0611 56.5849C44.3091 56.8424 44.6057 57.0471 44.9333 57.1868C45.2608 57.3266 45.6127 57.3986 45.9683 57.3986C46.3238 57.3986 46.6757 57.3266 47.0033 57.1868C47.3309 57.0471 47.6274 56.8424 47.8755 56.5849L59.9377 44.1377C60.4373 43.6169 60.7167 42.9199 60.7167 42.1944C60.7167 41.4689 60.4373 40.7719 59.9377 40.2512L58.8646 39.1444C58.6168 38.8867 58.3204 38.6819 57.9929 38.5421C57.6655 38.4023 57.3136 38.3304 56.9582 38.3305C56.6025 38.3301 56.2503 38.402 55.9225 38.5418C55.5947 38.6816 55.2981 38.8865 55.0501 39.1444L46.6497 47.8118C46.4683 47.9938 46.223 48.096 45.9674 48.096C45.7118 48.096 45.4665 47.9938 45.2851 47.8118L42.3818 44.8146ZM47.8755 49.0243L56.2759 40.3569C56.3644 40.2642 56.4704 40.1905 56.5877 40.1401C56.705 40.0898 56.8312 40.0638 56.9586 40.0638C57.0861 40.0638 57.2122 40.0898 57.3295 40.1401C57.4468 40.1905 57.5529 40.2642 57.6414 40.3569L58.7146 41.4646C58.902 41.6603 59.0069 41.922 59.0069 42.1944C59.0069 42.4668 58.902 42.7286 58.7146 42.9242L46.6506 55.3723C46.4692 55.5544 46.2239 55.6565 45.9683 55.6565C45.7127 55.6565 45.4674 55.5544 45.286 55.3723L38.7182 48.5944C38.5308 48.3988 38.4259 48.137 38.4259 47.8646C38.4259 47.5922 38.5308 47.3305 38.7182 47.1348L39.7914 46.0271C39.9733 45.8456 40.2186 45.7439 40.4742 45.7439C40.7297 45.7439 40.975 45.8456 41.1569 46.0271L44.0611 49.0243C44.5705 49.5288 45.2552 49.8114 45.9683 49.8114C46.6814 49.8114 47.366 49.5288 47.8755 49.0243ZM27.286 31.3966C27.2861 31.5992 27.3564 31.7954 27.4847 31.951C27.6129 32.1067 27.791 32.212 27.9881 32.2486C33.4234 33.261 34.014 33.8582 35.0169 39.3559C35.0537 39.5547 35.158 39.7343 35.3119 39.8635C35.4658 39.9927 35.6595 40.0635 35.8596 40.0635C36.0596 40.0635 36.2533 39.9927 36.4072 39.8635C36.5611 39.7343 36.6654 39.5547 36.7022 39.3559C37.7033 33.8599 38.2939 33.2627 43.731 32.2486C43.9277 32.2115 44.1053 32.106 44.2331 31.9504C44.3609 31.7948 44.4308 31.5989 44.4308 31.3966C44.4308 31.1944 44.3609 30.9985 44.2331 30.8429C44.1053 30.6873 43.9277 30.5818 43.731 30.5446C38.2957 29.5323 37.7051 28.9351 36.7022 23.4374C36.6654 23.2385 36.5611 23.059 36.4072 22.9297C36.2533 22.8005 36.0596 22.7298 35.8596 22.7298C35.6595 22.7298 35.4658 22.8005 35.3119 22.9297C35.158 23.059 35.0537 23.2385 35.0169 23.4374C34.0158 28.9334 33.4252 29.5305 27.9881 30.5446C27.791 30.5813 27.6129 30.6866 27.4847 30.8422C27.3564 30.9979 27.2861 31.194 27.286 31.3966ZM35.8578 27.3152C36.1124 28.2962 36.6203 29.1912 37.3296 29.9084C38.0389 30.6256 38.9241 31.1392 39.8943 31.3966C38.9241 31.654 38.0389 32.1676 37.3296 32.8848C36.6203 33.602 36.1124 34.497 35.8578 35.4781C35.6033 34.497 35.0953 33.602 34.386 32.8848C33.6767 32.1676 32.7916 31.654 31.8214 31.3966C32.7916 31.1392 33.6767 30.6256 34.386 29.9084C35.0953 29.1912 35.6033 28.2962 35.8578 27.3152ZM70.3002 61.7472C64.8648 60.7348 64.2742 60.1376 63.2713 54.6399C63.2346 54.4411 63.1303 54.2615 62.9764 54.1323C62.8225 54.003 62.6288 53.9323 62.4287 53.9323C62.2287 53.9323 62.0349 54.003 61.8811 54.1323C61.7272 54.2615 61.6228 54.4411 61.5861 54.6399C60.5849 60.1359 59.9943 60.7331 54.5572 61.7472C54.3606 61.7843 54.183 61.8898 54.0552 62.0454C53.9274 62.201 53.8574 62.3969 53.8574 62.5992C53.8574 62.8014 53.9274 62.9973 54.0552 63.1529C54.183 63.3085 54.3606 63.414 54.5572 63.4512C59.9926 64.4635 60.5832 65.0607 61.5861 70.5584C61.6228 70.7572 61.7272 70.9368 61.8811 71.066C62.0349 71.1953 62.2287 71.266 62.4287 71.266C62.6288 71.266 62.8225 71.1953 62.9764 71.066C63.1303 70.9368 63.2346 70.7572 63.2713 70.5584C64.2725 65.0624 64.8631 64.4652 70.3002 63.4512C70.4968 63.414 70.6744 63.3085 70.8022 63.1529C70.93 62.9973 71 62.8014 71 62.5992C71 62.3969 70.93 62.201 70.8022 62.0454C70.6744 61.8898 70.4968 61.7843 70.3002 61.7472ZM62.4304 66.6806C62.1759 65.6996 61.6679 64.8046 60.9586 64.0874C60.2493 63.3702 59.3642 62.8566 58.394 62.5992C59.3642 62.3418 60.2493 61.8281 60.9586 61.1109C61.6679 60.3937 62.1759 59.4988 62.4304 58.5177C62.685 59.4988 63.1929 60.3937 63.9022 61.1109C64.6115 61.8281 65.4966 62.3418 66.4669 62.5992C65.4966 62.8566 64.6115 63.3702 63.9022 64.0874C63.1929 64.8046 62.685 65.6996 62.4304 66.6806Z" fill="#65E8C9"/>
</g>
<defs>
<clipPath id="clip0_1_16">
<rect width="94" height="94" rx="47" fill="white"/>
</clipPath>
</defs>
</svg>
