<svg width="94" height="94" viewBox="0 0 94 94" fill="none" xmlns="http://www.w3.org/2000/svg">
<g clip-path="url(#clip0_1_23)">
<rect width="94" height="94" rx="47" fill="#F6F5FA"/>
<circle cx="44" cy="17" r="3" fill="#ECEAF4"/>
<circle cx="56.5" cy="52.5" r="5.5" fill="#ECEAF4"/>
<circle cx="35" cy="76" r="4" fill="#ECEAF4"/>
<circle cx="46" cy="78" r="2" fill="#ECEAF4"/>
<circle cx="75.5" cy="49.5" r="5.5" fill="#ECEAF4"/>
<circle cx="24.5" cy="48.5" r="11.5" fill="#ECEAF4"/>
<path d="M49.4375 55.35L49.5195 55.3539C49.9228 55.395 50.2372 55.7357 50.2373 56.1498C50.2373 56.564 49.9229 56.9047 49.5195 56.9457L49.4375 56.9496H32.2861C31.8443 56.9496 31.4863 56.5917 31.4863 56.1498C31.4864 55.7081 31.8443 55.35 32.2861 55.35H49.4375ZM49.4375 50.8354L49.5195 50.8393C49.9228 50.8803 50.2372 51.2211 50.2373 51.6352C50.2373 52.0493 49.9229 52.39 49.5195 52.4311L49.4375 52.435H32.2861C31.8443 52.435 31.4863 52.077 31.4863 51.6352C31.4865 51.1935 31.8444 50.8354 32.2861 50.8354H49.4375ZM49.4375 46.3207L49.5195 46.3246C49.9228 46.3657 50.2371 46.7065 50.2373 47.1205C50.2373 47.5347 49.9229 47.8754 49.5195 47.9164L49.4375 47.9213H32.2861C31.8443 47.9213 31.4863 47.5624 31.4863 47.1205C31.4865 46.6789 31.8444 46.3207 32.2861 46.3207H49.4375ZM66.7295 32.8432C66.7295 28.288 63.0372 24.5952 58.4834 24.5952C53.9296 24.5952 50.2373 28.288 50.2373 32.8432C50.2374 37.3984 53.9296 41.0912 58.4834 41.0912C63.0372 41.0912 66.7294 37.3983 66.7295 32.8432ZM49.4375 41.8061C49.8793 41.8061 50.2373 42.165 50.2373 42.6069C50.2371 43.0485 49.8792 43.4067 49.4375 43.4067H32.2861C31.8444 43.4067 31.4865 43.0485 31.4863 42.6069C31.4863 42.165 31.8443 41.8061 32.2861 41.8061H49.4375ZM57.6875 38.1049V31.5961C57.6875 31.1544 58.0456 30.7964 58.4873 30.7963C58.9291 30.7963 59.2871 31.1543 59.2871 31.5961V38.1049C59.2869 38.5466 58.929 38.9047 58.4873 38.9047C58.0457 38.9046 57.6877 38.5465 57.6875 38.1049ZM33.0859 36.5922H48.6377V34.1723H33.0859V36.5922ZM68.3291 32.8432C68.3291 36.6122 66.2112 39.8852 63.1016 41.5405V46.3051C63.1016 46.7468 62.7434 47.1047 62.3018 47.1049C61.8599 47.1049 61.501 46.7469 61.501 46.3051V42.2172C60.5498 42.5233 59.5363 42.6908 58.4834 42.6909C57.8452 42.6909 57.2216 42.6272 56.6172 42.5112V62.9926C56.6172 64.8219 55.1339 66.3051 53.3047 66.3051H33.1904V68.1127C33.1904 69.0582 33.9568 69.8244 34.9023 69.8246H59.7891C60.7348 69.8246 61.501 69.0584 61.501 68.1127V54.9106C61.5011 54.4689 61.86 54.1108 62.3018 54.1108C62.7433 54.111 63.1014 54.469 63.1016 54.9106V68.1127C63.1016 69.942 61.6185 71.4252 59.7891 71.4252H34.9023C33.0731 71.425 31.5908 69.9419 31.5908 68.1127V66.3051H28.4189C26.5898 66.3051 25.1064 64.8219 25.1064 62.9926V28.3676C25.1066 26.5384 26.5899 25.0561 28.4189 25.0561H52.46C54.1251 23.7656 56.2138 22.9955 58.4834 22.9955C63.9212 22.9956 68.3291 27.4047 68.3291 32.8432ZM26.7061 62.9926C26.7061 63.9382 27.4734 64.7045 28.4189 64.7045H53.3047C54.2502 64.7045 55.0176 63.9383 55.0176 62.9926V42.061C52.9283 41.2747 51.1769 39.8002 50.041 37.9116C49.8943 38.082 49.68 38.1928 49.4375 38.1928H32.2861C31.8443 38.1928 31.4863 37.8339 31.4863 37.392V33.3725C31.4864 32.9307 31.8443 32.5727 32.2861 32.5727H48.6445C48.7049 30.3332 49.5113 28.2816 50.8262 26.6557H28.4189C27.4734 26.6557 26.7062 27.4222 26.7061 28.3676V62.9926Z" fill="#65E8C9"/>
<path d="M59.4352 28.5333C59.4352 29.0589 59.0091 29.4852 58.4834 29.4852C57.9577 29.4852 57.5316 29.0589 57.5316 28.5333C57.5316 28.0077 57.9578 27.5815 58.4834 27.5815C59.009 27.5815 59.4352 28.0076 59.4352 28.5333Z" fill="#65E8C9"/>
</g>
<defs>
<clipPath id="clip0_1_23">
<rect width="94" height="94" rx="47" fill="white"/>
</clipPath>
</defs>
</svg>
