<svg width="94" height="94" viewBox="0 0 94 94" fill="none" xmlns="http://www.w3.org/2000/svg">
<g clip-path="url(#clip0_1_55)">
<rect width="94" height="94" rx="47" fill="#F6F5FA"/>
<circle cx="44" cy="17" r="3" fill="#ECEAF4"/>
<circle cx="56.5" cy="52.5" r="5.5" fill="#ECEAF4"/>
<circle cx="35" cy="76" r="4" fill="#ECEAF4"/>
<circle cx="46" cy="78" r="2" fill="#ECEAF4"/>
<circle cx="75.5" cy="49.5" r="5.5" fill="#ECEAF4"/>
<circle cx="24.5" cy="48.5" r="11.5" fill="#ECEAF4"/>
<path d="M49.7402 64.1631C49.7402 63.7562 49.4114 63.4289 49.0088 63.4287H44.0117C43.609 63.4287 43.2803 63.7562 43.2803 64.1631V71.2002H49.7402V64.1631ZM71.2002 55.8525C71.2002 55.4458 70.8713 55.1184 70.4688 55.1182H65.4717C65.069 55.1182 64.7402 55.4456 64.7402 55.8525V71.2002H71.2002V55.8525ZM39.2734 41.7041C39.7153 41.7041 40.0732 42.0631 40.0732 42.5049V59.8105C40.0732 60.2523 39.7152 60.6104 39.2734 60.6104C37.6965 60.6103 36.167 60.4074 34.709 60.0273L32.3525 65.1475C32.2219 65.4312 31.9383 65.6133 31.626 65.6133H23.0254C22.5838 65.6131 22.2257 65.2551 22.2256 64.8135C22.2256 64.3718 22.5837 64.0139 23.0254 64.0137H31.1133L33.168 59.5498C26.1903 57.0411 21.2004 50.3565 21.2002 42.5049L21.2041 42.4229C21.245 42.0194 21.5857 41.7041 22 41.7041H39.2734ZM60.4697 63.3008V44.4121C60.4697 44.005 60.1412 43.6777 59.7383 43.6777H54.7412C54.3385 43.6779 54.0107 44.005 54.0107 44.4121V71.2002H60.4697V66.3242C60.47 65.8826 60.8279 65.5245 61.2695 65.5244C61.7112 65.5244 62.0691 65.8826 62.0693 66.3242V72C62.0693 72.4418 61.7113 72.7998 61.2695 72.7998H53.21C52.7684 72.7996 52.4102 72.4416 52.4102 72V54.4258C49.5579 56.3116 46.1402 57.4111 42.4678 57.4111C42.0261 57.4111 41.6682 57.0529 41.668 56.6113V40.1045H25.1943C24.7525 40.1045 24.3945 39.7465 24.3945 39.3047C24.3946 35.0586 25.8548 31.1519 28.3008 28.0635C28.575 27.7174 29.0775 27.6588 29.4238 27.9326C29.7701 28.2069 29.8289 28.7103 29.5547 29.0566C27.4791 31.6772 26.1833 34.9424 26.0137 38.5049H42.4678C42.9095 38.5049 43.2674 38.863 43.2676 39.3047V55.79C46.6951 55.6259 49.8449 54.4113 52.4102 52.4619V44.4121C52.4102 43.1242 53.452 42.0783 54.7412 42.0781H58.709C58.8615 41.177 58.9414 40.2502 58.9414 39.3047C58.9414 36.0813 58.0184 33.0744 56.4238 30.5332L53.7275 35.3477L53.0293 34.9561L52.3311 34.5654L55.4014 29.082C52.3842 25.2557 47.712 22.7998 42.4678 22.7998C38.2604 22.7998 34.4221 24.3791 31.5107 26.9805L31.4473 27.0322C31.1191 27.2705 30.6569 27.2259 30.3809 26.917C30.0868 26.5875 30.116 26.0824 30.4453 25.7881L30.7471 25.5234C33.9017 22.8277 37.9962 21.2002 42.4678 21.2002C47.9866 21.2002 52.9263 23.6782 56.2412 27.583L57.3379 25.627L57.3975 25.5361C57.5473 25.3372 57.783 25.2178 58.0361 25.2178H68.6836C69.1254 25.2178 69.4834 25.5758 69.4834 26.0176C69.4834 26.4594 69.1254 26.8174 68.6836 26.8174H58.5049L57.3027 28.9629C59.3436 31.8951 60.541 35.4598 60.541 39.3047C60.541 40.2728 60.4641 41.224 60.3174 42.1523C61.3255 42.4102 62.0693 43.3239 62.0693 44.4121V63.3008C62.0693 63.7426 61.7114 64.1006 61.2695 64.1006C60.8278 64.1005 60.4697 63.7426 60.4697 63.3008ZM29.2939 60.7588L29.376 60.7627C29.7793 60.8037 30.0936 61.1446 30.0938 61.5586C30.0938 61.9728 29.7793 62.3135 29.376 62.3545L29.2939 62.3594H23.0254C22.5837 62.3592 22.2256 62.0003 22.2256 61.5586C22.2258 61.117 22.5838 60.7589 23.0254 60.7588H29.2939ZM22.8193 43.3047C23.1461 50.1641 27.6515 55.924 33.8398 58.0898L34.8359 55.9277C35.0207 55.5264 35.4961 55.3514 35.8975 55.5361C36.2985 55.721 36.4737 56.1955 36.2891 56.5967L35.3906 58.5479C36.3862 58.7889 37.4167 58.9396 38.4736 58.9902V43.3047H22.8193ZM70.4912 44.6973C70.9329 44.6974 71.291 45.0563 71.291 45.498C71.2908 45.9397 70.9328 46.2977 70.4912 46.2979H65.0088C64.5672 46.2977 64.2092 45.9396 64.209 45.498C64.209 45.0563 64.5671 44.6974 65.0088 44.6973H70.4912ZM70.4912 41.4404C70.9329 41.4406 71.291 41.7985 71.291 42.2402C71.2909 42.6819 70.9329 43.0399 70.4912 43.04H65.0088C64.5672 43.0399 64.2091 42.6819 64.209 42.2402C64.209 41.7985 64.5671 41.4406 65.0088 41.4404H70.4912ZM70.4912 38.1826L70.5732 38.1865C70.9764 38.2277 71.291 38.5684 71.291 38.9824C71.2909 39.3964 70.9764 39.7372 70.5732 39.7783L70.4912 39.7822H65.0088C64.5672 39.7821 64.2091 39.4241 64.209 38.9824C64.209 38.5407 64.5671 38.1828 65.0088 38.1826H70.4912ZM53.7275 35.3477C53.5116 35.7331 53.0232 35.8702 52.6377 35.6543C52.2525 35.4383 52.1152 34.9508 52.3311 34.5654L53.7275 35.3477ZM68.6836 22.208L68.7656 22.2119C69.169 22.2529 69.4834 22.5936 69.4834 23.0078C69.4834 23.422 69.169 23.7627 68.7656 23.8037L68.6836 23.8076H61.25C60.8082 23.8076 60.4502 23.4496 60.4502 23.0078C60.4502 22.566 60.8082 22.2081 61.25 22.208H68.6836ZM51.3398 72C51.3398 72.4418 50.9819 72.7998 50.54 72.7998H42.4795C42.0379 72.7996 41.6797 72.4417 41.6797 72V64.1631C41.6797 62.8751 42.7227 61.8281 44.0117 61.8281H49.0088C50.2977 61.8283 51.3398 62.8753 51.3398 64.1631V72ZM72.7998 72C72.7998 72.4418 72.4418 72.7998 72 72.7998H63.9395C63.4978 72.7996 63.1396 72.4417 63.1396 72V55.8525C63.1396 54.5647 64.1826 53.5176 65.4717 53.5176H70.4688C71.7575 53.5178 72.7998 54.5647 72.7998 55.8525V72Z" fill="#65E8C9"/>
</g>
<defs>
<clipPath id="clip0_1_55">
<rect width="94" height="94" rx="47" fill="white"/>
</clipPath>
</defs>
</svg>
