<svg width="32" height="32" viewBox="0 0 32 32" fill="none" xmlns="http://www.w3.org/2000/svg">
<g clip-path="url(#clip0_2001_2)">
<path d="M16 32.0007C24.837 32.0007 32 24.8377 32 16.0007C32 7.16367 24.837 0.000671387 16 0.000671387C7.163 0.000671387 0 7.16367 0 16.0007C0 24.8377 7.163 32.0007 16 32.0007Z" fill="#FA3E2C"/>
<path d="M18.277 9.14203H16.75C14.132 9.14203 12.823 10.492 12.823 12.515C12.823 14.765 13.696 15.889 15.659 17.238L17.187 18.363L12.823 25.335H9.33197L13.477 19.037C11.077 17.238 9.76797 15.664 9.76797 12.74C9.76797 9.14203 12.168 6.66803 16.75 6.66803H21.332V25.335H18.277V9.14203Z" fill="white"/>
</g>
<defs>
<clipPath id="clip0_2001_2">
<rect width="32" height="32" fill="white"/>
</clipPath>
</defs>
</svg>
