<svg width="24" height="24" viewBox="0 0 24 24" fill="none" xmlns="http://www.w3.org/2000/svg">
<path fill-rule="evenodd" clip-rule="evenodd" d="M4.28015 3.21995C3.9873 2.92701 3.51249 2.92701 3.21964 3.21995C2.92679 3.51288 2.92679 3.98782 3.21964 4.28076L10.9369 12.0003L3.22007 19.7193C2.92722 20.0123 2.92722 20.4872 3.22007 20.7802C3.51292 21.0731 3.98773 21.0731 4.28058 20.7802L11.9975 13.0611L19.7143 20.7802C20.0072 21.0731 20.482 21.0731 20.7748 20.7802C21.0677 20.4872 21.0677 20.0123 20.7748 19.7193L13.058 12.0003L20.7753 4.28076C21.0681 3.98782 21.0681 3.51288 20.7753 3.21995C20.4824 2.92701 20.0076 2.92701 19.7148 3.21995L11.9975 10.9395L4.28015 3.21995Z" fill="#00A68A"/>
</svg>
