<svg width="24" height="24" viewBox="0 0 24 24" fill="none" xmlns="http://www.w3.org/2000/svg">
<path d="M16.4943 22.2533C16.2528 22.4793 15.9509 22.6614 15.5953 22.7807C15.2396 22.9 14.8639 22.9753 14.4546 22.9941C13.7635 23.0255 13.1395 22.9313 12.5625 22.7053C11.9922 22.4856 11.4689 22.1591 10.9992 21.7197C10.3148 21.0793 9.74449 20.2443 9.30166 19.2147C8.85883 18.1851 8.53006 17.0488 8.32206 15.812C8.11406 14.5627 8.00671 13.2945 8 11.9949C8.00671 10.6954 8.11406 9.4272 8.32206 8.19042C8.53677 6.95992 8.85883 5.82986 9.29495 4.81909C9.73778 3.80205 10.3081 2.96706 11.0059 2.31414C11.4621 1.88723 11.9788 1.55449 12.5424 1.32848C13.1127 1.09619 13.7434 0.983188 14.4345 1.00202C15.2866 1.0083 15.9643 1.25315 16.4608 1.71772C16.6487 1.89351 16.7963 2.10696 16.8835 2.33925C16.9774 2.57782 17.011 2.83522 16.9573 3.11146L16.3199 6.6209C16.2729 6.89086 16.2058 7.11687 16.1186 7.31149C16.0381 7.49983 15.9307 7.66306 15.8033 7.78235C15.6422 7.93302 15.4342 8.03975 15.186 8.09625C14.9444 8.15903 14.6559 8.19042 14.3339 8.19042L13.2939 8.20925C13.1463 8.20925 13.0255 8.25948 12.9181 8.35993C12.8645 8.41015 12.8242 8.46038 12.7839 8.52316C12.7504 8.59222 12.7303 8.64872 12.7034 8.69894C12.6028 9.01913 12.5223 9.4837 12.4686 10.0864C12.4216 10.6954 12.3881 11.3295 12.3814 11.9887C12.3881 12.6604 12.4082 13.2945 12.4619 13.9097C12.5156 14.5124 12.6028 14.9707 12.7101 15.2972C12.7303 15.3411 12.7504 15.3977 12.7772 15.4604C12.8108 15.5295 12.8577 15.586 12.9181 15.6425C13.0322 15.7492 13.1597 15.7932 13.3073 15.7932L14.3204 15.7995C14.6559 15.7995 14.9444 15.8308 15.1793 15.8999C15.4275 15.9564 15.6288 16.0569 15.7965 16.2138C15.924 16.3331 16.0314 16.4838 16.1186 16.6784C16.2058 16.873 16.2729 17.099 16.3266 17.3627L16.9707 20.9161C17.0244 21.1923 17.0043 21.4372 16.9103 21.6632C16.8097 21.8829 16.6822 22.0775 16.4943 22.2533Z" stroke="#333333" stroke-width="1.5" stroke-miterlimit="10"/>
</svg>
