<svg width="24" height="24" viewBox="0 0 24 24" fill="none" xmlns="http://www.w3.org/2000/svg">
<path d="M1.5 14.6514C1.5 15.6496 2.235 16.8023 3.13333 17.2063L11.055 20.795C11.6617 21.0683 12.35 21.0683 12.945 20.795L20.8667 17.2063C21.765 16.8023 22.5 15.6496 22.5 14.6514M13.1783 3.26737L20.0617 6.38076C22.045 7.27199 22.045 8.7455 20.0617 9.63674L13.1783 12.7501C12.3967 13.1066 11.1133 13.1066 10.3317 12.7501L3.44833 9.63674C1.465 8.7455 1.465 7.27199 3.44833 6.38076L10.3317 3.26737C11.1133 2.91088 12.3967 2.91088 13.1783 3.26737Z" stroke="#333333" stroke-width="1.5" stroke-linecap="round" stroke-linejoin="round"/>
</svg>
