<svg width="18" height="18" viewBox="0 0 18 18" fill="none" xmlns="http://www.w3.org/2000/svg">
<path d="M10.6629 16.457C10.5019 16.6213 10.3006 16.7537 10.0635 16.8405C9.82643 16.9272 9.57594 16.982 9.30308 16.9957C8.84236 17.0186 8.42636 16.9501 8.04168 16.7857C7.66147 16.6259 7.31257 16.3885 6.99946 16.0689C6.54321 15.6031 6.163 14.9959 5.86777 14.2471C5.57255 13.4983 5.35337 12.6718 5.21471 11.7724C5.07604 10.8638 5.00447 9.94145 5 8.99632C5.00447 8.05118 5.07604 7.12887 5.21471 6.2294C5.35784 5.33449 5.57255 4.51263 5.8633 3.77752C6.15852 3.03785 6.53873 2.43059 7.00393 1.95574C7.3081 1.64526 7.65252 1.40327 8.02826 1.2389C8.40847 1.06996 8.82894 0.987773 9.28966 1.00147C9.85774 1.00604 10.3095 1.18411 10.6405 1.52198C10.7658 1.64983 10.8642 1.80506 10.9223 1.974C10.985 2.14751 11.0073 2.33471 10.9715 2.5356L10.5466 5.08793C10.5153 5.28426 10.4706 5.44863 10.4124 5.59017C10.3587 5.72715 10.2872 5.84586 10.2022 5.93261C10.0948 6.0422 9.95615 6.11982 9.79065 6.16091C9.62962 6.20657 9.43728 6.2294 9.22257 6.2294L8.52924 6.24309C8.43084 6.24309 8.35032 6.27962 8.27875 6.35267C8.24297 6.3892 8.21613 6.42573 8.18929 6.47139C8.16693 6.52161 8.15351 6.56271 8.13562 6.59923C8.06852 6.83209 8.01484 7.16997 7.97906 7.60829C7.94775 8.05118 7.92538 8.51233 7.92091 8.99175C7.92538 9.4803 7.9388 9.94145 7.97458 10.3889C8.01037 10.8272 8.06852 11.1605 8.14009 11.398C8.15351 11.4299 8.16693 11.471 8.18482 11.5167C8.20718 11.5669 8.2385 11.608 8.27875 11.6491C8.3548 11.7267 8.43978 11.7587 8.53819 11.7587L9.21362 11.7632C9.43728 11.7632 9.62962 11.7861 9.78617 11.8363C9.95168 11.8774 10.0859 11.9504 10.1977 12.0646C10.2827 12.1513 10.3543 12.2609 10.4124 12.4025C10.4706 12.544 10.5153 12.7084 10.5511 12.9001L10.9805 15.4844C11.0163 15.6853 11.0028 15.8634 10.9402 16.0278C10.8731 16.1876 10.7881 16.3291 10.6629 16.457Z" stroke="#34EF34" stroke-width="1.5" stroke-miterlimit="10"/>
</svg>
