<svg width="19" height="18" viewBox="0 0 19 18" fill="none" xmlns="http://www.w3.org/2000/svg">
<path d="M14.683 2.35938C15.1529 2.1795 15.7607 2.19116 16.1967 2.6416C16.6043 3.06295 16.6591 3.6663 16.5492 4.22656C16.5484 4.23103 16.5491 4.23577 16.5482 4.24023L14.5101 14.4229L14.5082 14.4287C14.416 14.8694 14.2017 15.385 13.6937 15.6289C13.1671 15.8817 12.6365 15.6982 12.266 15.4756C12.2399 15.4599 12.2148 15.4426 12.1908 15.4238L9.61462 13.4102L8.59607 14.4502C8.52605 14.5244 8.38419 14.6829 8.18982 14.8027C7.96796 14.9394 7.7148 15.0097 7.42517 15.0098C7.21771 15.0098 7.01912 14.9239 6.87732 14.7725C6.7357 14.6211 6.66255 14.4178 6.67615 14.2109L6.89685 10.8613C6.90919 10.6744 6.9911 10.4988 7.12634 10.3691L8.05994 9.47461L6.3197 10.6367C6.12762 10.7649 5.88663 10.7981 5.66736 10.7256L2.60193 9.71191L2.599 9.71094V9.70996C2.36622 9.63166 2.1248 9.51077 1.93396 9.32031C1.73246 9.11918 1.57405 8.82113 1.60388 8.45898C1.6322 8.11643 1.81841 7.85549 2.00623 7.68066C2.19595 7.50409 2.43495 7.36719 2.69177 7.26074L2.6947 7.25977L14.6674 2.36523L14.683 2.35938Z" stroke="white" stroke-width="1.5" stroke-linejoin="round"/>
</svg>
