<svg width="20" height="14" viewBox="0 0 20 14" fill="none" xmlns="http://www.w3.org/2000/svg">
<path d="M17.1641 0.900009C17.6944 0.900039 18.1062 1.38639 17.9961 1.92052C17.7638 3.04707 17.3234 4.11629 16.6992 5.06505C16.2641 5.72634 15.7435 6.31801 15.1562 6.82774C15.8414 7.32117 16.4569 7.91744 16.9805 8.6002C17.7115 9.55349 18.2499 10.6532 18.5664 11.8307C18.7134 12.3778 18.2966 12.9 17.7461 12.9H15.1562C14.7781 12.8999 14.4539 12.6517 14.3447 12.3024C13.8966 10.8685 12.9549 9.7824 11.7646 9.34239V12.0504C11.7644 12.5196 11.3843 12.8999 10.915 12.9H10.7002C7.8241 12.9 5.49641 11.844 3.88379 9.86485C2.28987 7.90867 1.45737 5.12935 1.37695 1.77892C1.36596 1.31006 1.74178 0.909006 2.22656 0.908798H4.7334C5.21066 0.908971 5.57226 1.29433 5.58301 1.73985C5.66354 5.14836 6.72938 6.90278 7.72363 7.69493V1.75841C7.72364 1.28897 8.10478 0.908798 8.57422 0.908798H10.915C11.3844 0.908894 11.7646 1.28903 11.7646 1.75841V4.74181C12.0782 4.55076 12.4047 4.27705 12.7188 3.91954C13.2897 3.2694 13.7615 2.41631 14.0088 1.52403C14.1096 1.16018 14.4417 0.900009 14.8291 0.900009H17.1641Z" stroke="white" stroke-width="1.5"/>
</svg>
