<svg width="18" height="18" viewBox="0 0 18 18" fill="none" xmlns="http://www.w3.org/2000/svg">
<path d="M5.175 15.45L5.56087 14.8069C5.38287 14.7001 5.16856 14.6718 4.96896 14.7289L5.175 15.45ZM2.475 12.75L3.20087 12.9387C3.24824 12.7565 3.22536 12.5632 3.13676 12.3971L2.475 12.75ZM1.83033 15.2295L2.5562 15.4182H2.5562L1.83033 15.2295ZM2.76224 16.1394L2.5562 15.4182H2.5562L2.76224 16.1394ZM12.0607 11.8485L12.6157 12.3529L12.616 12.3526L12.0607 11.8485ZM11.5063 12.2468L11.2223 11.5526L11.2182 11.5543L11.5063 12.2468ZM8.58256 11.4604L8.14061 12.0663L8.14155 12.067L8.58256 11.4604ZM7.4739 10.5154L6.94138 11.0436L6.94654 11.0487L7.4739 10.5154ZM6.53086 9.41175L5.92231 9.85014L5.92485 9.85363L6.53086 9.41175ZM5.86837 8.26088L5.17729 8.55229L5.17822 8.55447L5.86837 8.26088ZM5.74668 6.50588L6.44291 6.78478L6.44447 6.78083L5.74668 6.50588ZM6.13539 5.94225L6.64965 6.48818L6.65545 6.48272L6.66113 6.47713L6.13539 5.94225ZM7.11223 5.68575L6.78804 6.36216L6.79833 6.3669L7.11223 5.68575ZM7.3387 5.87475L6.72231 6.30212L6.72732 6.30916L7.3387 5.87475ZM8.12287 6.97838L7.51148 7.4128L7.51453 7.41704L8.12287 6.97838ZM8.25808 7.21463L7.56397 7.49901L7.56888 7.51044L8.25808 7.21463ZM8.23442 7.66013L7.59403 7.26974L7.58771 7.2801L7.58173 7.29066L8.23442 7.66013ZM8.04513 7.89975L7.5152 7.36902L7.51006 7.37415L7.50503 7.37938L8.04513 7.89975ZM7.78825 8.16638L8.31818 8.6971L8.32331 8.69198L8.32835 8.68675L7.78825 8.16638ZM7.74431 8.379L7.01676 8.56116L7.02715 8.60265L7.04219 8.64269L7.74431 8.379ZM7.77135 8.4465L7.05994 8.68399L7.08111 8.7474L7.11315 8.80606L7.77135 8.4465ZM8.08569 8.8785L7.51348 9.36341L7.51893 9.36971L8.08569 8.8785ZM8.5758 9.41175L8.04084 9.93741L8.0458 9.94246L8.05085 9.94741L8.5758 9.41175ZM9.11323 9.90788L8.62823 10.48L8.6292 10.4808L9.11323 9.90788ZM9.54926 10.2184L9.19876 10.8814L9.23403 10.9001L9.27108 10.9149L9.54926 10.2184ZM9.6101 10.2454L9.31504 10.9349L9.33092 10.9417L9.34711 10.9478L9.6101 10.2454ZM9.83319 10.2015L9.30677 9.66726L9.30326 9.67077L9.83319 10.2015ZM10.0901 9.94838L10.6165 10.4826L10.62 10.4791L10.0901 9.94838ZM10.3334 9.75938L10.68 10.4245L10.7019 10.4131L10.723 10.4003L10.3334 9.75938ZM11.0162 9.864L11.45 9.25215L11.4438 9.24777L11.4375 9.24351L11.0162 9.864ZM12.135 10.6571L11.7012 11.269L11.7085 11.2741L12.135 10.6571ZM12.3209 10.8731L13.0171 10.5942L13.0124 10.5824L13.0072 10.5707L12.3209 10.8731ZM5.175 15.45L4.78913 16.0931C6.03203 16.8389 7.51564 17.25 9 17.25V16.5V15.75C7.78437 15.75 6.56797 15.4111 5.56087 14.8069L5.175 15.45ZM9 16.5V17.25C13.5392 17.25 17.25 13.5392 17.25 9H16.5H15.75C15.75 12.7108 12.7108 15.75 9 15.75V16.5ZM16.5 9H17.25C17.25 4.46079 13.5392 0.75 9 0.75V1.5V2.25C12.7108 2.25 15.75 5.28921 15.75 9H16.5ZM9 1.5V0.75C4.46079 0.75 0.75 4.46079 0.75 9H1.5H2.25C2.25 5.28921 5.28921 2.25 9 2.25V1.5ZM1.5 9H0.75C0.75 10.4905 1.16408 11.8858 1.81324 13.1029L2.475 12.75L3.13676 12.3971C2.58592 11.3642 2.25 10.2095 2.25 9H1.5ZM2.475 12.75L1.74913 12.5613L1.10447 15.0408L1.83033 15.2295L2.5562 15.4182L3.20087 12.9387L2.475 12.75ZM2.76224 16.1394L2.96828 16.8605L5.38104 16.1711L5.175 15.45L4.96896 14.7289L2.5562 15.4182L2.76224 16.1394ZM1.83033 15.2295L1.10447 15.0408C0.812381 16.1642 1.85219 17.1794 2.96828 16.8605L2.76224 16.1394L2.5562 15.4182H2.5562L1.83033 15.2295ZM12.375 11.1364H11.625C11.625 11.1452 11.6233 11.1607 11.6125 11.1836L12.2905 11.5043L12.9685 11.8249C13.0726 11.6048 13.125 11.3705 13.125 11.1364H12.375ZM12.2905 11.5043L11.6125 11.1836C11.5849 11.242 11.5509 11.2942 11.5053 11.3444L12.0607 11.8485L12.616 12.3526C12.7665 12.1868 12.8812 12.0095 12.9685 11.8249L12.2905 11.5043ZM12.0607 11.8485L11.5056 11.3441C11.4061 11.4536 11.3135 11.5153 11.2223 11.5526L11.5063 12.2468L11.7904 12.9409C12.1115 12.8095 12.3839 12.6079 12.6157 12.3529L12.0607 11.8485ZM11.5063 12.2468L11.2182 11.5543C11.1102 11.5992 10.9888 11.625 10.8472 11.625V12.375V13.125C11.1789 13.125 11.4968 13.063 11.7944 12.9392L11.5063 12.2468ZM10.8472 12.375V11.625C10.6209 11.625 10.3524 11.5719 10.0389 11.4385L9.74531 12.1286L9.45169 12.8188C9.91564 13.0162 10.384 13.125 10.8472 13.125V12.375ZM9.74531 12.1286L10.0389 11.4385C9.70765 11.2976 9.36799 11.1041 9.02357 10.8537L8.58256 11.4604L8.14155 12.067C8.56779 12.3769 9.00555 12.629 9.45169 12.8188L9.74531 12.1286ZM8.58256 11.4604L9.02451 10.8544C8.66671 10.5935 8.32676 10.304 8.00126 9.98209L7.4739 10.5154L6.94654 11.0487C7.32409 11.422 7.721 11.7603 8.14062 12.0663L8.58256 11.4604ZM7.4739 10.5154L8.00639 9.98722C7.68388 9.66206 7.39429 9.32291 7.13687 8.96987L6.53086 9.41175L5.92485 9.85363C6.22852 10.2701 6.56763 10.6667 6.94141 11.0435L7.4739 10.5154ZM6.53086 9.41175L7.1394 8.97337C6.88866 8.62531 6.69529 8.2888 6.55851 7.96728L5.86837 8.26088L5.17822 8.55447C5.36593 8.99571 5.61872 9.42869 5.92232 9.85013L6.53086 9.41175ZM5.86837 8.26088L6.55944 7.96946C6.42884 7.65977 6.375 7.39106 6.375 7.15725H5.625H4.875C4.875 7.62544 4.9834 8.09248 5.1773 8.55229L5.86837 8.26088ZM5.625 7.15725H6.375C6.375 7.01678 6.39965 6.89273 6.4429 6.78478L5.74668 6.50588L5.05047 6.22697C4.93147 6.52402 4.875 6.83872 4.875 7.15725H5.625ZM5.74668 6.50588L6.44447 6.78083C6.48262 6.684 6.54579 6.58601 6.64965 6.48818L6.13539 5.94225L5.62114 5.39632C5.36671 5.63599 5.17299 5.916 5.0489 6.23093L5.74668 6.50588ZM6.13539 5.94225L6.66113 6.47713C6.76414 6.37588 6.81981 6.375 6.83845 6.375V5.625V4.875C6.35684 4.875 5.93929 5.08337 5.60965 5.40737L6.13539 5.94225ZM6.83845 5.625V6.375C6.82824 6.375 6.81118 6.37316 6.78808 6.36208L7.11223 5.68575L7.43638 5.00942C7.24428 4.91735 7.03794 4.875 6.83845 4.875V5.625ZM7.11223 5.68575L6.79833 6.3669C6.78876 6.36249 6.77489 6.35467 6.7597 6.3422C6.74423 6.3295 6.73157 6.31539 6.72235 6.30209L7.3387 5.87475L7.95504 5.44741C7.81162 5.24056 7.62534 5.0964 7.42614 5.0046L7.11223 5.68575ZM7.3387 5.87475L6.72732 6.30916L7.51149 7.41279L8.12287 6.97838L8.73425 6.54396L7.95008 5.44034L7.3387 5.87475ZM8.12287 6.97838L7.51453 7.41704C7.54817 7.46368 7.56032 7.48983 7.56406 7.49897L8.25808 7.21463L8.95209 6.93029C8.89499 6.79092 8.81926 6.66182 8.73121 6.53971L8.12287 6.97838ZM8.25808 7.21463L7.56888 7.51044C7.56844 7.50942 7.56557 7.50263 7.56256 7.48963C7.55962 7.47697 7.5554 7.45347 7.5554 7.4205H8.3054H9.0554C9.0554 7.23043 9.00699 7.05795 8.94727 6.91881L8.25808 7.21463ZM8.3054 7.4205H7.5554C7.5554 7.35029 7.57702 7.29764 7.59403 7.26974L8.23442 7.66013L8.8748 8.05051C8.98645 7.86737 9.0554 7.65271 9.0554 7.4205H8.3054ZM8.23442 7.66013L7.58173 7.29066C7.58173 7.29066 7.58057 7.29271 7.57781 7.29676C7.57506 7.30079 7.57101 7.3064 7.56539 7.31351C7.55399 7.32793 7.5376 7.34665 7.5152 7.36902L8.04513 7.89975L8.57506 8.43048C8.69018 8.31553 8.8012 8.18134 8.8871 8.02959L8.23442 7.66013ZM8.04513 7.89975L7.50503 7.37938L7.24814 7.646L7.78825 8.16638L8.32835 8.68675L8.58523 8.42012L8.04513 7.89975ZM7.78825 8.16638L7.25831 7.63565C7.06872 7.82496 6.98417 8.06516 6.98417 8.30138H7.73417H8.48417C8.48417 8.35384 8.47567 8.42534 8.44438 8.50418C8.41254 8.58443 8.36624 8.64911 8.31818 8.6971L7.78825 8.16638ZM7.73417 8.30138H6.98417C6.98417 8.39953 6.99766 8.48485 7.01676 8.56116L7.74431 8.379L8.47185 8.19684C8.47391 8.20506 8.47737 8.22049 8.4801 8.24092C8.48291 8.26196 8.48417 8.28248 8.48417 8.30138H7.73417ZM7.74431 8.379L7.04219 8.64269C7.04834 8.65906 7.05403 8.6732 7.05862 8.68432C7.0628 8.69444 7.06712 8.70456 7.06852 8.70788C7.07073 8.71309 7.07018 8.71187 7.06899 8.70888C7.06759 8.70536 7.06409 8.69643 7.05994 8.68399L7.77135 8.4465L8.48275 8.20901C8.47522 8.18645 8.46792 8.16739 8.4624 8.15354C8.45709 8.14021 8.4521 8.12845 8.44966 8.12268C8.4433 8.10767 8.44491 8.11129 8.44642 8.11531L7.74431 8.379ZM7.77135 8.4465L7.11315 8.80606C7.2095 8.98243 7.35151 9.17221 7.51351 9.36338L8.08569 8.8785L8.65787 8.39362C8.52243 8.23379 8.45487 8.13332 8.42954 8.08695L7.77135 8.4465ZM8.08569 8.8785L7.51893 9.36971C7.67867 9.55402 7.85165 9.74487 8.04084 9.93741L8.5758 9.41175L9.11076 8.88609C8.94842 8.72088 8.79692 8.55398 8.65245 8.3873L8.08569 8.8785ZM8.5758 9.41175L8.05085 9.94741C8.23941 10.1322 8.42958 10.3115 8.62823 10.48L9.11323 9.90788L9.59823 9.3358C9.4386 9.20046 9.27724 9.04906 9.10075 8.87609L8.5758 9.41175ZM9.11323 9.90788L8.6292 10.4808C8.82717 10.648 9.01841 10.7861 9.19876 10.8814L9.54926 10.2184L9.89977 9.55532C9.85027 9.52915 9.75082 9.46471 9.59727 9.33498L9.11323 9.90788ZM9.54926 10.2184L9.27108 10.9149C9.26384 10.912 9.25925 10.9099 9.25907 10.9099C9.25898 10.9098 9.26005 10.9103 9.26504 10.9126C9.2725 10.916 9.29283 10.9254 9.31504 10.9349L9.6101 10.2454L9.90517 9.55586C9.90517 9.55586 9.9049 9.55574 9.90429 9.55547C9.90367 9.5552 9.90277 9.5548 9.90148 9.55421C9.89832 9.55279 9.89557 9.55152 9.88926 9.54864C9.88411 9.54628 9.87545 9.54232 9.86607 9.53817C9.8566 9.53398 9.84314 9.52814 9.82745 9.52187L9.54926 10.2184ZM9.6101 10.2454L9.34711 10.9478C9.48364 10.9989 9.6062 11.0089 9.69461 11.0089V10.2589V9.50888C9.72217 9.50888 9.79065 9.51213 9.8731 9.543L9.6101 10.2454ZM9.69461 10.2589V11.0089C9.96125 11.0089 10.1929 10.9022 10.3631 10.7322L9.83319 10.2015L9.30326 9.67077C9.3422 9.63189 9.39999 9.5871 9.47798 9.55393C9.55672 9.52045 9.6324 9.50888 9.69461 9.50888V10.2589ZM9.83319 10.2015L10.3596 10.7357L10.6165 10.4826L10.0901 9.94838L9.56367 9.41415L9.30678 9.66728L9.83319 10.2015ZM10.0901 9.94838L10.62 10.4791C10.6451 10.4541 10.6636 10.4381 10.6756 10.4288C10.6878 10.4192 10.6893 10.4197 10.68 10.4245L10.3334 9.75938L9.98692 9.09422C9.81728 9.1826 9.67501 9.30295 9.56014 9.41765L10.0901 9.94838ZM10.3334 9.75938L10.723 10.4003C10.714 10.4057 10.6942 10.4163 10.6647 10.4251C10.6344 10.4341 10.6029 10.4385 10.5734 10.4385V9.6885V8.9385C10.3354 8.9385 10.1244 9.00876 9.94391 9.11847L10.3334 9.75938ZM10.5734 9.6885V10.4385C10.5523 10.4385 10.5337 10.4362 10.5189 10.4331C10.5045 10.4301 10.4966 10.4269 10.496 10.4267L10.7796 9.73238L11.0632 9.03807C10.9112 8.97596 10.7474 8.9385 10.5734 8.9385V9.6885ZM10.7796 9.73238L10.496 10.4267C10.5074 10.4314 10.5383 10.446 10.5949 10.4845L11.0162 9.864L11.4375 9.24351C11.3252 9.16722 11.2005 9.09415 11.0632 9.03807L10.7796 9.73238ZM11.0162 9.864L10.5825 10.4759L11.7013 11.269L12.135 10.6571L12.5688 10.0453L11.45 9.25215L11.0162 9.864ZM12.135 10.6571L11.7085 11.2741C11.7067 11.2728 11.6943 11.2639 11.6784 11.2453C11.6618 11.226 11.6463 11.2021 11.6346 11.1756L12.3209 10.8731L13.0072 10.5707C12.9062 10.3413 12.7458 10.1676 12.5615 10.0402L12.135 10.6571ZM12.3209 10.8731L11.6247 11.152C11.6287 11.162 11.6284 11.1631 11.6272 11.1578C11.6267 11.1553 11.6261 11.1518 11.6256 11.1477C11.6252 11.1436 11.625 11.1397 11.625 11.1364H12.375H13.125C13.125 10.9268 13.0784 10.7472 13.0171 10.5942L12.3209 10.8731Z" fill="white"/>
</svg>
